<svg width="116" height="44" viewBox="0 0 116 44" fill="none" xmlns="http://www.w3.org/2000/svg">
<rect width="116" height="44" rx="4" fill="white"/>
<path d="M28.016 21.208V21.976C28.016 23.512 27.5093 24.7707 26.496 25.752C25.4827 26.7227 24.16 27.208 22.528 27.208C20.8 27.208 19.3707 26.648 18.24 25.528C17.12 24.408 16.56 23.032 16.56 21.4C16.56 19.7787 17.12 18.408 18.24 17.288C19.3707 16.1573 20.768 15.592 22.432 15.592C23.4773 15.592 24.432 15.832 25.296 16.312C26.16 16.792 26.832 17.4373 27.312 18.248L25.728 19.16C25.4293 18.6267 24.9867 18.2 24.4 17.88C23.8133 17.5493 23.1573 17.384 22.432 17.384C21.2587 17.384 20.2933 17.768 19.536 18.536C18.7787 19.304 18.4 20.264 18.4 21.416C18.4 22.568 18.7787 23.5227 19.536 24.28C20.304 25.0373 21.3067 25.416 22.544 25.416C23.536 25.416 24.3413 25.1867 24.96 24.728C25.5893 24.2587 25.9893 23.6347 26.16 22.856H22.416V21.208H28.016ZM33.8261 15.8C34.8821 15.8 35.7621 16.152 36.4661 16.856C37.1808 17.56 37.5381 18.4347 37.5381 19.48C37.5381 20.5147 37.1808 21.3893 36.4661 22.104C35.7621 22.808 34.8821 23.16 33.8261 23.16H31.5381V27H29.6981V15.8H33.8261ZM33.8261 21.432C34.3701 21.432 34.8181 21.2507 35.1701 20.888C35.5221 20.5147 35.6981 20.0453 35.6981 19.48C35.6981 18.9147 35.5221 18.4507 35.1701 18.088C34.8181 17.7147 34.3701 17.528 33.8261 17.528H31.5381V21.432H33.8261ZM42.5511 27.208C41.4738 27.208 40.5565 26.9627 39.7991 26.472C39.0525 25.9813 38.5298 25.3093 38.2311 24.456L39.8151 23.528C40.2631 24.7867 41.1911 25.416 42.5991 25.416C43.2925 25.416 43.8098 25.2827 44.1511 25.016C44.5031 24.7387 44.6791 24.3813 44.6791 23.944C44.6791 23.4853 44.4925 23.1387 44.1191 22.904C43.7458 22.6587 43.0845 22.392 42.1351 22.104C41.6018 21.944 41.1698 21.7947 40.8391 21.656C40.5085 21.5173 40.1565 21.3253 39.7831 21.08C39.4205 20.824 39.1485 20.5093 38.9671 20.136C38.7858 19.7627 38.6951 19.3253 38.6951 18.824C38.6951 17.832 39.0471 17.048 39.7511 16.472C40.4551 15.8853 41.3031 15.592 42.2951 15.592C43.1911 15.592 43.9751 15.8107 44.6471 16.248C45.3191 16.6853 45.8365 17.288 46.1991 18.056L44.6471 18.952C44.1778 17.9067 43.3938 17.384 42.2951 17.384C41.7618 17.384 41.3351 17.512 41.0151 17.768C40.6951 18.0133 40.5351 18.3493 40.5351 18.776C40.5351 19.192 40.6951 19.5227 41.0151 19.768C41.3458 20.0027 41.9378 20.2533 42.7911 20.52C43.2178 20.6587 43.5271 20.7653 43.7191 20.84C43.9218 20.904 44.1991 21.0107 44.5511 21.16C44.9138 21.3093 45.1858 21.4587 45.3671 21.608C45.5485 21.7573 45.7405 21.944 45.9431 22.168C46.1565 22.392 46.3058 22.648 46.3911 22.936C46.4765 23.224 46.5191 23.5493 46.5191 23.912C46.5191 24.9253 46.1511 25.7307 45.4151 26.328C44.6898 26.9147 43.7351 27.208 42.5511 27.208ZM47.9638 22.968V21.304H53.8838V22.968H47.9638ZM64.168 19V27H62.488V21.736L60.184 25.4H59.976L57.688 21.752V27H56.008V19H57.768L60.088 22.696L62.408 19H64.168ZM67.5243 23.736C67.6523 24.344 67.9456 24.8133 68.4043 25.144C68.8629 25.464 69.4229 25.624 70.0843 25.624C71.0016 25.624 71.6896 25.2933 72.1483 24.632L73.5723 25.464C72.7829 26.6267 71.6149 27.208 70.0683 27.208C68.7669 27.208 67.7163 26.8133 66.9163 26.024C66.1163 25.224 65.7163 24.216 65.7163 23C65.7163 21.8053 66.1109 20.808 66.9003 20.008C67.6896 19.1973 68.7029 18.792 69.9403 18.792C71.1136 18.792 72.0736 19.2027 72.8203 20.024C73.5776 20.8453 73.9563 21.8427 73.9563 23.016C73.9563 23.1973 73.9349 23.4373 73.8923 23.736H67.5243ZM67.5082 22.328H72.2123C72.0949 21.6773 71.8229 21.1867 71.3963 20.856C70.9803 20.5253 70.4896 20.36 69.9243 20.36C69.2843 20.36 68.7509 20.536 68.3243 20.888C67.8976 21.24 67.6256 21.72 67.5082 22.328ZM81.2763 19V20.664H78.6683V27H76.9403V20.664H74.3163V19H81.2763ZM89.5175 27H87.4535L84.1735 23.304V27H82.4455V19H84.1735V22.536L87.2775 19H89.3895L85.8695 22.92L89.5175 27ZM96.3753 19H98.1033V27H96.3753V25.848C95.7246 26.7547 94.7913 27.208 93.5753 27.208C92.4766 27.208 91.5379 26.8027 90.7593 25.992C89.9806 25.1707 89.5913 24.1733 89.5913 23C89.5913 21.816 89.9806 20.8187 90.7593 20.008C91.5379 19.1973 92.4766 18.792 93.5753 18.792C94.7913 18.792 95.7246 19.24 96.3753 20.136V19ZM92.0393 24.84C92.5193 25.32 93.1219 25.56 93.8473 25.56C94.5726 25.56 95.1753 25.32 95.6553 24.84C96.1353 24.3493 96.3753 23.736 96.3753 23C96.3753 22.264 96.1353 21.656 95.6553 21.176C95.1753 20.6853 94.5726 20.44 93.8473 20.44C93.1219 20.44 92.5193 20.6853 92.0393 21.176C91.5593 21.656 91.3193 22.264 91.3193 23C91.3193 23.736 91.5593 24.3493 92.0393 24.84Z" fill="#141B1F"/>
</svg>
