<svg width="616" height="96" viewBox="0 0 616 96" fill="none" xmlns="http://www.w3.org/2000/svg">
<path opacity="0.4" d="M18 63.24H21.36V72.88H38V76.36H18V63.24ZM35.48 44.0894C37.5067 46.1427 38.52 48.636 38.52 51.5694C38.52 54.5027 37.5067 56.996 35.48 59.0494C33.4533 61.076 30.96 62.0894 28 62.0894C25.04 62.0894 22.5467 61.076 20.52 59.0494C18.4933 56.996 17.48 54.5027 17.48 51.5694C17.48 48.636 18.4933 46.1427 20.52 44.0894C22.5467 42.036 25.04 41.0094 28 41.0094C30.96 41.0094 33.4533 42.036 35.48 44.0894ZM35.12 51.5694C35.12 49.5694 34.44 47.8894 33.08 46.5294C31.72 45.1694 30.0267 44.4894 28 44.4894C25.9733 44.4894 24.28 45.1694 22.92 46.5294C21.56 47.8894 20.88 49.5694 20.88 51.5694C20.88 53.5427 21.56 55.2094 22.92 56.5694C24.28 57.9294 25.9733 58.6094 28 58.6094C30.0267 58.6094 31.72 57.9294 33.08 56.5694C34.44 55.2094 35.12 53.5427 35.12 51.5694ZM38.52 27.5069C38.52 30.5202 37.52 33.0269 35.52 35.0269C33.4933 37.0269 30.9867 38.0269 28 38.0269C25.0133 38.0269 22.52 37.0269 20.52 35.0269C18.4933 33.0269 17.48 30.5202 17.48 27.5069C17.48 25.5335 17.96 23.7602 18.92 22.1869C19.8533 20.6135 21.12 19.4402 22.72 18.6669L24.4 21.5869C23.3333 22.0935 22.48 22.8802 21.84 23.9469C21.2 24.9869 20.88 26.1735 20.88 27.5069C20.88 29.5069 21.56 31.1869 22.92 32.5469C24.28 33.8802 25.9733 34.5469 28 34.5469C30 34.5469 31.68 33.8802 33.04 32.5469C34.4 31.1869 35.08 29.5069 35.08 27.5069C35.08 26.1735 34.7733 24.9735 34.16 23.9069C33.52 22.8402 32.6667 22.0269 31.6 21.4669L33.32 18.5069C34.8933 19.3602 36.16 20.5869 37.12 22.1869C38.0533 23.7869 38.52 25.5602 38.52 27.5069Z" fill="white"/>
<path d="M104.32 67.72C98.6667 73.32 91.7867 76.12 83.68 76.12C75.5733 76.12 68.6933 73.32 63.04 67.72C57.44 62.0667 54.64 55.16 54.64 47C54.64 38.84 57.44 31.96 63.04 26.36C68.6933 20.7067 75.5733 17.88 83.68 17.88C91.7867 17.88 98.6667 20.7067 104.32 26.36C109.973 31.96 112.8 38.84 112.8 47C112.8 55.16 109.973 62.0667 104.32 67.72ZM70.8 60.2C74.2667 63.6133 78.56 65.32 83.68 65.32C88.8 65.32 93.0933 63.6133 96.56 60.2C100.027 56.7333 101.76 52.3333 101.76 47C101.76 41.6667 100.027 37.2667 96.56 33.8C93.0933 30.3333 88.8 28.6 83.68 28.6C78.56 28.6 74.2667 30.3333 70.8 33.8C67.3333 37.2667 65.6 41.6667 65.6 47C65.6 52.3333 67.3333 56.7333 70.8 60.2ZM141.439 19C146.826 19 151.359 20.8133 155.039 24.44C158.719 28.0667 160.559 32.52 160.559 37.8C160.559 43.08 158.719 47.5333 155.039 51.16C151.359 54.7867 146.826 56.6 141.439 56.6H131.599V75H120.559V19H141.439ZM141.439 46.28C143.786 46.28 145.733 45.48 147.279 43.88C148.826 42.2267 149.599 40.2 149.599 37.8C149.599 35.3467 148.826 33.32 147.279 31.72C145.733 30.12 143.786 29.32 141.439 29.32H131.599V46.28H141.439ZM199.587 19V29.56H178.787V75H167.747V19H199.587ZM235.309 75L231.949 64.92H209.629L206.269 75H194.349L213.949 19H227.629L247.309 75H235.309ZM213.149 54.6H228.509L220.829 31.72L213.149 54.6ZM284.587 19H295.547V75H284.587V51.8H263.787V75H252.747V19H263.787V41.24H284.587V19ZM338.35 75V40.84L314.35 75H305.95V19H316.99V53.24L340.99 19H349.39V75H338.35ZM388.833 46.04C394.166 48.8667 396.833 53.2933 396.833 59.32C396.833 64.3333 394.94 68.3867 391.153 71.48C387.366 74.5733 382.486 76.12 376.513 76.12C366.113 76.12 359.153 71.72 355.633 62.92L365.153 57.56C366.86 63 370.646 65.72 376.513 65.72C379.553 65.72 381.873 65.08 383.473 63.8C385.073 62.52 385.873 60.7867 385.873 58.6C385.873 56.4133 385.073 54.68 383.473 53.4C381.926 52.12 379.686 51.48 376.753 51.48H369.793V41.64H375.073C377.846 41.64 380.006 41.0533 381.553 39.88C383.1 38.6533 383.873 37 383.873 34.92C383.873 32.84 383.206 31.2133 381.873 30.04C380.54 28.8133 378.566 28.2 375.953 28.2C371.153 28.2 367.793 30.5467 365.873 35.24L356.513 29.8C360.3 21.8533 366.78 17.88 375.953 17.88C381.5 17.88 386.033 19.3733 389.553 22.36C393.073 25.3467 394.833 29.2933 394.833 34.2C394.833 39.2133 392.833 43.16 388.833 46.04ZM439.997 75L436.637 64.92H414.317L410.957 75H399.037L418.637 19H432.317L451.997 75H439.997ZM417.837 54.6H433.197L425.517 31.72L417.837 54.6ZM499.274 64.44H505.274V85.72H494.234V75H457.434V19H468.474V64.44H488.234V19H499.274V64.44ZM545.069 75V40.84L521.069 75H512.669V19H523.709V53.24L547.709 19H556.109V75H545.069ZM576.577 13.88V4.92H599.777V13.88H576.577ZM598.897 75V40.84L574.897 75H566.497V19H577.537V53.24L601.537 19H609.937V75H598.897Z" fill="url(#paint0_linear)"/>
<defs>
<linearGradient id="paint0_linear" x1="334" y1="-54.4" x2="334" y2="96" gradientUnits="userSpaceOnUse">
<stop stop-color="white"/>
<stop offset="1" stop-color="white" stop-opacity="0"/>
</linearGradient>
</defs>
</svg>
