<svg width="23" height="20" viewBox="0 0 23 20" fill="none" xmlns="http://www.w3.org/2000/svg">
<path d="M20.9784 8.51563H6.05806L11.2655 3.33338C11.8466 2.75506 11.8488 1.81523 11.2705 1.23417C10.6922 0.653041 9.75229 0.65089 9.17124 1.22913L1.41508 8.94788L1.41374 8.94929C0.834169 9.5276 0.832313 10.4705 1.41359 11.0507L1.41493 11.0521L9.17109 18.7709C9.75207 19.349 10.692 19.347 11.2704 18.7658C11.8487 18.1848 11.8465 17.2449 11.2654 16.6666L6.05806 11.4844H20.9784C21.7982 11.4844 22.4628 10.8198 22.4628 10C22.4628 9.18018 21.7982 8.51563 20.9784 8.51563Z" fill="white"/>
</svg>
