<svg width="41" height="38" viewBox="0 0 41 38" fill="none" xmlns="http://www.w3.org/2000/svg">
<path d="M38.02 17.0908L21.512 0.655878C20.6337 -0.218626 19.0994 -0.218626 18.2174 0.655878C17.7783 1.09497 17.5358 1.67678 17.5358 2.2952C17.5358 2.91362 17.7783 3.49722 18.2175 3.93452L26.9455 12.6249C27.1256 12.8061 27.2156 13.0403 27.2156 13.2744C27.2156 13.5086 27.1256 13.7427 26.9473 13.9221C26.589 14.2788 26.0065 14.2788 25.6482 13.9221L14.164 2.4873C13.2838 1.61091 11.7495 1.61091 10.8693 2.4873C10.4302 2.9264 10.1876 3.5082 10.1876 4.12662C10.1876 4.74505 10.4302 5.32865 10.8693 5.76594L22.3535 17.2007C22.5336 17.38 22.6218 17.6142 22.6218 17.8484C22.6218 18.0826 22.5318 18.3167 22.3535 18.496C21.9952 18.8528 21.4127 18.8528 21.0544 18.496L7.27334 4.77429C6.39316 3.8979 4.8589 3.8979 3.97872 4.77429C3.53953 5.21339 3.29699 5.79519 3.29699 6.41361C3.29699 7.03203 3.53953 7.61564 3.97872 8.05293L6.2737 10.338L6.27551 10.3398L17.7597 21.7746C17.9398 21.9539 18.028 22.188 18.028 22.4223C18.028 22.6565 17.938 22.8906 17.7597 23.0699C17.4014 23.4267 16.8189 23.4267 16.4606 23.0699L4.97664 11.6351C4.53565 11.196 3.95133 10.9545 3.32842 10.9545C2.70552 10.9545 2.1212 11.196 1.68021 11.6333C1.24102 12.0724 0.998474 12.6542 0.998474 13.2726C0.998474 13.891 1.24102 14.4746 1.68021 14.9119L16.8394 30.0058C17.0856 30.251 17.1719 30.6133 17.0617 30.9426C16.9496 31.2719 16.663 31.5097 16.3193 31.5591L7.09522 32.8727C5.47086 33.1033 4.2471 34.5102 4.2471 36.144C4.2471 36.6472 4.65873 37.0588 5.16587 37.0588H28.9226C31.1294 37.0588 33.2076 36.2026 34.7713 34.6475L38.02 31.4128C39.9401 29.501 40.9985 26.956 40.9985 24.2519C40.9985 21.5477 39.9401 19.0028 38.02 17.0908Z" fill="white"/>
</svg>
