<svg width="19" height="18" viewBox="0 0 19 18" fill="none" xmlns="http://www.w3.org/2000/svg">
<path d="M7.95523 9.01475L0.946384 2.00569C0.490259 1.54978 0.490259 0.812636 0.946384 0.356726C1.40229 -0.0991842 2.13944 -0.0991842 2.59535 0.356726L9.60441 7.36579L16.6133 0.356726C17.0694 -0.0991842 17.8063 -0.0991842 18.2622 0.356726C18.7184 0.812636 18.7184 1.54978 18.2622 2.00569L11.2534 9.01475L18.2622 16.0238C18.7184 16.4797 18.7184 17.2169 18.2622 17.6728C18.035 17.9002 17.7363 18.0144 17.4377 18.0144C17.1392 18.0144 16.8407 17.9002 16.6133 17.6728L9.60441 10.6637L2.59535 17.6728C2.36793 17.9002 2.0694 18.0144 1.77087 18.0144C1.47234 18.0144 1.17381 17.9002 0.946384 17.6728C0.490259 17.2169 0.490259 16.4797 0.946384 16.0238L7.95523 9.01475Z" fill="white"/>
</svg>
