<svg width="240" height="62" viewBox="0 0 240 62" fill="none" xmlns="http://www.w3.org/2000/svg">
<g opacity="0.6">
<path d="M191.7 42.6365C191.7 44.5768 190.105 46.7111 186.478 48.8567C182.918 50.9628 177.7 52.8942 171.164 54.5295C158.108 57.7964 140.018 59.8277 120 59.8277C99.981 59.8277 81.8912 57.7964 68.8351 54.5295C62.2994 52.8942 57.0813 50.9628 53.5212 48.8567C49.8944 46.7111 48.2988 44.5768 48.2988 42.6365C48.2988 40.6962 49.8944 38.5619 53.5212 36.4163C57.0813 34.3102 62.2994 32.3789 68.8351 30.7435C81.8912 27.4766 99.981 25.4453 120 25.4453C140.018 25.4453 158.108 27.4766 171.164 30.7435C177.7 32.3789 182.918 34.3102 186.478 36.4163C190.105 38.5619 191.7 40.6962 191.7 42.6365Z" stroke="white" stroke-width="2"/>
<path d="M239 30.6976C239 34.3755 236.066 38.154 230.052 41.7909C224.1 45.3911 215.419 48.6689 204.605 51.4353C182.991 56.9644 153.079 60.3953 120 60.3953C86.9214 60.3953 57.0086 56.9644 35.395 51.4353C24.5806 48.6689 15.9004 45.3911 9.94771 41.7909C3.93443 38.154 1 34.3755 1 30.6976C1 27.0197 3.93443 23.2413 9.94771 19.6044C15.9004 16.0042 24.5806 12.7264 35.395 9.95993C57.0086 4.43088 86.9214 1 120 1C153.079 1 182.991 4.43088 204.605 9.95993C215.419 12.7264 224.1 16.0042 230.052 19.6044C236.066 23.2413 239 27.0197 239 30.6976Z" stroke="white" stroke-width="2"/>
<path d="M213.89 37.5205C213.89 40.2484 211.67 43.1302 206.922 45.9546C202.239 48.7403 195.397 51.2839 186.854 53.4335C169.782 57.7289 146.146 60.3964 120 60.3964C93.8541 60.3964 70.2173 57.7289 53.1462 53.4335C44.6029 51.2839 37.7603 48.7403 33.0776 45.9546C28.3297 43.1302 26.1094 40.2484 26.1094 37.5205C26.1094 34.7926 28.3297 31.9107 33.0776 29.0863C37.7603 26.3006 44.6029 23.757 53.1462 21.6074C70.2173 17.312 93.8541 14.6445 120 14.6445C146.146 14.6445 169.782 17.312 186.854 21.6074C195.397 23.757 202.239 26.3006 206.922 29.0863C211.67 31.9107 213.89 34.7926 213.89 37.5205Z" stroke="white" stroke-width="2"/>
</g>
</svg>
