<svg width="402" height="143" viewBox="0 0 402 143" fill="none" xmlns="http://www.w3.org/2000/svg">
<g clip-path="url(#clip0)">
<g filter="url(#filter0_d)">
<path d="M34.8 11C39.16 11 42.8 12.38 45.72 15.14C48.64 17.86 50.1 21.5 50.1 26.06C50.1 30.62 48.64 34.28 45.72 37.04C42.8 39.76 39.16 41.12 34.8 41.12H30V53H18L18 11L34.8 11ZM34.8 29.48C35.72 29.48 36.5 29.18 37.14 28.58C37.78 27.94 38.1 27.1 38.1 26.06C38.1 25.02 37.78 24.2 37.14 23.6C36.5 22.96 35.72 22.64 34.8 22.64H30V29.48H34.8ZM74.4094 53L72.9694 47.6H60.8494L59.4094 53H46.5094L59.8894 11L73.9294 11L87.3094 53L74.4094 53ZM63.4294 38H70.3894L66.9094 25.1L63.4294 38ZM108.319 26.36C112.599 26.36 115.959 27.56 118.399 29.96C120.879 32.32 122.119 35.5 122.119 39.5C122.119 43.54 120.879 46.8 118.399 49.28C115.919 51.76 112.559 53 108.319 53H89.7188L89.7188 11L118.519 11V22.64L101.719 22.64V26.36H108.319ZM107.419 42.2C108.219 42.2 108.859 41.96 109.339 41.48C109.859 41 110.119 40.34 110.119 39.5C110.119 38.66 109.859 38 109.339 37.52C108.859 37.04 108.219 36.8 107.419 36.8H101.719V42.2H107.419ZM162.528 47.66C158.248 51.86 152.988 53.96 146.748 53.96C140.508 53.96 135.228 51.86 130.908 47.66C126.628 43.42 124.488 38.2 124.488 32C124.488 25.8 126.628 20.6 130.908 16.4C135.228 12.16 140.508 10.04 146.748 10.04C152.988 10.04 158.248 12.16 162.528 16.4C166.848 20.6 169.008 25.8 169.008 32C169.008 38.2 166.848 43.42 162.528 47.66ZM139.368 39.32C141.328 41.24 143.788 42.2 146.748 42.2C149.708 42.2 152.148 41.24 154.068 39.32C156.028 37.36 157.008 34.92 157.008 32C157.008 29.08 156.028 26.66 154.068 24.74C152.148 22.78 149.708 21.8 146.748 21.8C143.788 21.8 141.328 22.78 139.368 24.74C137.448 26.66 136.488 29.08 136.488 32C136.488 34.92 137.448 37.36 139.368 39.32ZM201.091 11V22.64H191.191V53H179.191V22.64H169.291V11L201.091 11ZM225.991 53L224.551 47.6L212.431 47.6L210.991 53H198.091L211.471 11L225.511 11L238.891 53H225.991ZM215.011 38H221.971L218.491 25.1L215.011 38ZM34.62 70.04C41.06 70.04 46.32 72.14 50.4 76.34C54.52 80.5 56.58 85.72 56.58 92C56.58 98.28 54.52 103.52 50.4 107.72C46.32 111.88 41.06 113.96 34.62 113.96C30.74 113.96 27.14 113.04 23.82 111.2C20.54 109.36 18 106.86 16.2 103.7L26.64 97.7C27.36 99.18 28.44 100.36 29.88 101.24C31.36 102.08 33.04 102.5 34.92 102.5C39.08 102.5 42 100.8 43.68 97.4H31.02V86.6H43.68C42 83.2 39.08 81.5 34.92 81.5C33.08 81.5 31.42 81.94 29.94 82.82C28.46 83.7 27.36 84.84 26.64 86.24L16.2 80.24C18.04 77.16 20.6 74.7 23.88 72.86C27.2 70.98 30.78 70.04 34.62 70.04ZM56.25 113L56.25 101.84C58.37 102.04 59.85 101.74 60.69 100.94C61.57 100.14 62.01 98.48 62.01 95.96V71H92.85V113H80.85V82.64H74.01V97.4C74.01 100.72 73.51 103.52 72.51 105.8C71.55 108.04 70.19 109.7 68.43 110.78C66.71 111.82 64.85 112.52 62.85 112.88C60.85 113.2 58.65 113.24 56.25 113ZM110.859 101.96H126.459V113H98.8594V71H126.159V81.92H110.859V86.48H124.659V97.28H110.859V101.96ZM167.022 113H153.702L143.262 95V113H131.262V71H143.262V87.8L153.102 71H166.422L153.942 91.4L167.022 113ZM198.806 71V82.64H188.906L188.906 113H176.906L176.906 82.64H167.006V71H198.806ZM219.195 71C223.555 71 227.195 72.38 230.115 75.14C233.035 77.86 234.495 81.5 234.495 86.06C234.495 90.62 233.035 94.28 230.115 97.04C227.195 99.76 223.555 101.12 219.195 101.12H214.395V113H202.395L202.395 71H219.195ZM219.195 89.48C220.115 89.48 220.895 89.18 221.535 88.58C222.175 87.94 222.495 87.1 222.495 86.06C222.495 85.02 222.175 84.2 221.535 83.6C220.895 82.96 220.115 82.64 219.195 82.64H214.395V89.48H219.195ZM260.878 113V93.8L247.678 113H238.078L238.078 71H250.078V90.2L263.278 71H272.878V113H260.878ZM314.619 113H301.299L290.859 95V113H278.859V71H290.859V87.8L300.699 71H314.019L301.539 91.4L314.619 113ZM343.12 113L341.68 107.6H329.56L328.12 113L315.22 113L328.6 71H342.64L356.02 113H343.12ZM332.14 98H339.1L335.62 85.1L332.14 98Z" fill="white"/>
</g>
<path d="M401.75 89.25H390.5L393 74.25L374.25 96.75H385.5L383 111.75L401.75 89.25Z" fill="white"/>
</g>
<defs>
<filter id="filter0_d" x="-7.80005" y="-9.95996" width="387.82" height="151.92" filterUnits="userSpaceOnUse" color-interpolation-filters="sRGB">
<feFlood flood-opacity="0" result="BackgroundImageFix"/>
<feColorMatrix in="SourceAlpha" type="matrix" values="0 0 0 0 0 0 0 0 0 0 0 0 0 0 0 0 0 0 127 0" result="hardAlpha"/>
<feOffset dy="4"/>
<feGaussianBlur stdDeviation="12"/>
<feColorMatrix type="matrix" values="0 0 0 0 1 0 0 0 0 1 0 0 0 0 1 0 0 0 0.25 0"/>
<feBlend mode="normal" in2="BackgroundImageFix" result="effect1_dropShadow"/>
<feBlend mode="normal" in="SourceGraphic" in2="effect1_dropShadow" result="shape"/>
</filter>
<clipPath id="clip0">
<rect width="402" height="143" fill="white"/>
</clipPath>
</defs>
</svg>
