<?xml version="1.0" encoding="iso-8859-1"?>
<!-- Generator: Adobe Illustrator 16.0.0, SVG Export Plug-In . SVG Version: 6.00 Build 0)  -->
<!DOCTYPE svg PUBLIC "-//W3C//DTD SVG 1.1//EN" "http://www.w3.org/Graphics/SVG/1.1/DTD/svg11.dtd">
<svg version="1.1" id="Capa_1" xmlns="http://www.w3.org/2000/svg" x="0px" y="0px"
     width="441.05px" height="441.051px" viewBox="0 0 441.05 441.051" style="enable-background:new 0 0 441.05 441.051;"
     xml:space="preserve">
<g>
	<g>
		<path d="M2.046,354.788c0.545,1.214,2.754,5.135,8.51,5.135c2.649,0,5.776-0.842,9.85-2.648l153.793-69.032
			c4.647-2.075,7.612-0.65,7.612,4.935v63.074c0,8.663-5.575,21.42-11.943,27.291l-34.568,31.92
			c-8.262,7.621-7.43,14.047-6.206,17.184c1.224,3.137,4.953,8.405,16.228,8.405h150.408c11.274,0,15.004-5.269,16.218-8.405
			c1.234-3.137,2.065-9.562-6.196-17.184l-34.568-31.92c-6.368-5.861-11.943-18.618-11.943-27.291v-63.074
			c-0.01-5.585,2.955-7,7.593-4.935l153.832,69.032c3.997,1.797,7.21,2.648,9.83,2.648c5.785,0,7.984-3.939,8.511-5.135
			c2.534-5.585-1.454-11.169-5.212-15.405L270.284,154.951c-5.881-6.646-11.055-20.263-11.055-29.156V65.13
			c0-12.067-5.154-29.452-11.733-39.598l-10.385-15.95C233.152,3.49,227.099,0,220.52,0c-6.598,0-12.632,3.49-16.571,9.582
			l-10.414,15.969c-6.569,10.146-11.724,27.531-11.724,39.579v60.665c0,8.893-5.173,22.51-11.063,29.156L7.257,339.383
			C3.499,343.619-0.488,349.203,2.046,354.788z M196.155,125.794V65.13c0-9.342,4.313-23.887,9.4-31.767l10.413-15.969
			c2.773-4.274,6.312-4.312,9.104,0.019l10.385,15.95c5.106,7.86,9.419,22.415,9.419,31.767v60.665
			c0,12.403,6.445,29.396,14.669,38.681l147.923,166.856c3.5,3.949,2.438,5.402-2.381,3.241l-132.394-59.421
			c-3.261-1.453-6.502-2.189-9.639-2.189c-10.7,0-18.169,8.31-18.169,20.205v63.074c0,12.642,7.277,29.252,16.553,37.819
			l34.568,31.92c0.124,0.115,0.249,0.229,0.363,0.345c0.201,0.191,0.125,0.363-0.152,0.363c-0.163,0-0.325,0-0.498,0H145.311
			c-0.172,0-0.334,0-0.497,0c-0.277,0-0.344-0.173-0.153-0.363c0.115-0.115,0.239-0.221,0.364-0.345l34.568-31.92
			c9.285-8.567,16.553-25.178,16.553-37.819v-63.074c0-11.896-7.468-20.205-18.169-20.205c-3.136,0-6.388,0.727-9.648,2.189
			L35.935,334.572c-4.819,2.161-5.881,0.708-2.381-3.241l147.922-166.856C189.71,155.19,196.155,138.197,196.155,125.794z"/>
		<path d="M379.382,41.405c-4.629-3.806-10.662-5.9-16.993-5.9c-8.29,0-16.208,3.605-21.181,9.639c0,0-1.444,1.759-3.232,3.93
			c-1.788,2.17-4.676,2.17-6.454,0l-3.223-3.93c-4.973-6.034-12.871-9.639-21.162-9.639c-6.35,0-12.384,2.094-17.012,5.9
			c-6.292,5.174-9.897,12.814-9.897,20.952c0,6.254,2.19,12.364,6.168,17.222l7.191,8.75c3.356,4.083,3.356,10.691,0,14.774
			l-7.21,8.769c-3.959,4.839-6.149,10.949-6.149,17.184c0,8.147,3.605,15.778,9.897,20.97c4.839,3.978,10.949,6.158,17.203,6.158
			c8.166,0,15.797-3.605,20.971-9.897c0,0,1.443-1.76,3.223-3.94c1.778-2.18,4.676-2.18,6.464-0.009l3.241,3.93
			c4.954,6.053,12.872,9.658,21.162,9.658c6.33,0,12.364-2.114,16.993-5.9c11.561-9.505,13.225-26.631,3.738-38.173l-7.19-8.75
			c-3.356-4.083-3.356-10.69,0-14.774l7.19-8.75c4.59-5.604,6.742-12.642,6.034-19.871
			C388.457,52.508,384.986,46.005,379.382,41.405z M357.36,88.329c-3.348,4.083-3.348,10.701,0.009,14.774l14.679,17.844
			c2.171,2.63,3.156,5.958,2.84,9.371c-0.334,3.395-1.979,6.464-4.608,8.606c-5.002,4.15-13.856,3.232-17.969-1.759l-11.484-13.961
			c-3.356-4.083-8.788-4.083-12.145,0l-11.465,13.961c-4.312,5.25-12.757,6.053-17.968,1.778c-2.965-2.448-4.667-6.053-4.667-9.897
			c0-2.974,0.995-5.776,2.897-8.09l14.679-17.863c3.356-4.083,3.356-10.691,0-14.774l-14.679-17.844
			c-1.884-2.333-2.897-5.135-2.897-8.128c0-3.825,1.702-7.43,4.647-9.859c2.314-1.903,5.116-2.917,8.109-2.917
			c3.844,0,7.449,1.702,9.878,4.647l11.475,13.971c3.347,4.083,8.788,4.083,12.145,0.01l11.484-13.961
			c4.074-4.973,12.977-5.862,17.987-1.759c2.63,2.161,4.255,5.211,4.59,8.606c0.335,3.395-0.688,6.723-2.859,9.353L357.36,88.329z"
			/>
	</g>
</g>
<g>
</g>
<g>
</g>
<g>
</g>
<g>
</g>
<g>
</g>
<g>
</g>
<g>
</g>
<g>
</g>
<g>
</g>
<g>
</g>
<g>
</g>
<g>
</g>
<g>
</g>
<g>
</g>
<g>
</g>
</svg>
