<svg width="387" height="143" viewBox="0 0 387 143" fill="none" xmlns="http://www.w3.org/2000/svg">
<g filter="url(#filter0_d)">
<path d="M78.593 82L77.153 76.6H65.033L63.593 82H50.693L64.073 40H78.113L91.493 82H78.593ZM67.613 67H74.573L71.093 54.1L67.613 67ZM120.314 40V51.64H110.414V82H98.4141V51.64H88.5141V40L120.314 40ZM167.702 40V82L155.702 82V61.54L146.342 77.26H145.262L135.902 61.54V82H123.902L123.902 40H135.902L145.802 57.1L155.702 40L167.702 40Z" fill="white"/>
</g>
<g filter="url(#filter1_d)">
<path d="M244.6 44V58H243.2V45.32H236V58H234.6V44H244.6ZM252.963 47.76C254.39 47.76 255.603 48.2667 256.603 49.28C257.616 50.2933 258.123 51.5333 258.123 53C258.123 54.4667 257.616 55.7067 256.603 56.72C255.603 57.7333 254.39 58.24 252.963 58.24C251.19 58.24 249.843 57.5067 248.923 56.04V62H247.603V48H248.923V49.96C249.843 48.4933 251.19 47.76 252.963 47.76ZM250.063 55.82C250.823 56.58 251.756 56.96 252.863 56.96C253.97 56.96 254.903 56.58 255.663 55.82C256.423 55.0467 256.803 54.1067 256.803 53C256.803 51.8933 256.423 50.96 255.663 50.2C254.903 49.4267 253.97 49.04 252.863 49.04C251.756 49.04 250.823 49.4267 250.063 50.2C249.303 50.96 248.923 51.8933 248.923 53C248.923 54.1067 249.303 55.0467 250.063 55.82ZM267.598 48H268.718V58H267.398V50.3L261.438 58H260.318V48H261.638V55.7L267.598 48ZM279.709 48V58H278.389V49.28H273.869V53.74C273.869 55.4067 273.549 56.5533 272.909 57.18C272.283 57.8067 271.416 58.08 270.309 58V56.76C271.069 56.84 271.629 56.66 271.989 56.22C272.363 55.78 272.549 54.9533 272.549 53.74V48H279.709ZM290.885 56.74C289.872 57.74 288.632 58.24 287.165 58.24C285.699 58.24 284.452 57.74 283.425 56.74C282.412 55.7267 281.905 54.48 281.905 53C281.905 51.52 282.412 50.28 283.425 49.28C284.452 48.2667 285.699 47.76 287.165 47.76C288.632 47.76 289.872 48.2667 290.885 49.28C291.912 50.28 292.425 51.52 292.425 53C292.425 54.48 291.912 55.7267 290.885 56.74ZM284.365 55.82C285.125 56.58 286.059 56.96 287.165 56.96C288.272 56.96 289.205 56.58 289.965 55.82C290.725 55.0467 291.105 54.1067 291.105 53C291.105 51.8933 290.725 50.96 289.965 50.2C289.205 49.4267 288.272 49.04 287.165 49.04C286.059 49.04 285.125 49.4267 284.365 50.2C283.605 50.96 283.225 51.8933 283.225 53C283.225 54.1067 283.605 55.0467 284.365 55.82ZM305.514 58H303.914L299.834 53.18V58H298.514V53.18L294.434 58H292.834L297.314 52.8L293.034 48H294.634L298.514 52.44V48H299.834V52.44L303.714 48H305.314L301.034 52.8L305.514 58ZM314.59 48H315.71V58H314.39V50.3L308.43 58H307.31V48H308.63V55.7L314.59 48ZM325.702 48V49.28H322.162V58H320.842V49.28H317.302V48H325.702ZM331.54 47.76C333.02 47.76 334.213 48.2867 335.12 49.34C336.04 50.38 336.5 51.6133 336.5 53.04C336.5 53.1867 336.486 53.3933 336.46 53.66H327.68C327.813 54.6733 328.24 55.48 328.96 56.08C329.693 56.6667 330.593 56.96 331.66 56.96C332.42 56.96 333.073 56.8067 333.62 56.5C334.18 56.18 334.6 55.7667 334.88 55.26L336.04 55.94C335.6 56.6467 335 57.2067 334.24 57.62C333.48 58.0333 332.613 58.24 331.64 58.24C330.066 58.24 328.786 57.7467 327.8 56.76C326.813 55.7733 326.32 54.52 326.32 53C326.32 51.5067 326.806 50.26 327.78 49.26C328.753 48.26 330.006 47.76 331.54 47.76ZM331.54 49.04C330.5 49.04 329.626 49.3533 328.92 49.98C328.226 50.5933 327.813 51.3933 327.68 52.38H335.14C335.006 51.3267 334.6 50.5067 333.92 49.92C333.24 49.3333 332.446 49.04 331.54 49.04ZM242.48 78H240.72L235.72 73.18V78H234.4V68H235.72V72.42L240.48 68H242.28L237.12 72.8L242.48 78ZM251.887 68H253.207V78H251.887V76.04C250.967 77.5067 249.62 78.24 247.847 78.24C246.42 78.24 245.2 77.7333 244.187 76.72C243.187 75.7067 242.687 74.4667 242.687 73C242.687 71.5333 243.187 70.2933 244.187 69.28C245.2 68.2667 246.42 67.76 247.847 67.76C249.62 67.76 250.967 68.4933 251.887 69.96V68ZM245.147 75.82C245.907 76.58 246.84 76.96 247.947 76.96C249.053 76.96 249.987 76.58 250.747 75.82C251.507 75.0467 251.887 74.1067 251.887 73C251.887 71.8933 251.507 70.96 250.747 70.2C249.987 69.4267 249.053 69.04 247.947 69.04C246.84 69.04 245.907 69.4267 245.147 70.2C244.387 70.96 244.007 71.8933 244.007 73C244.007 74.1067 244.387 75.0467 245.147 75.82ZM261.362 67.76C262.788 67.76 264.002 68.2667 265.002 69.28C266.015 70.2933 266.522 71.5333 266.522 73C266.522 74.4667 266.015 75.7067 265.002 76.72C264.002 77.7333 262.788 78.24 261.362 78.24C259.588 78.24 258.242 77.5067 257.322 76.04V82H256.002V68H257.322V69.96C258.242 68.4933 259.588 67.76 261.362 67.76ZM258.462 75.82C259.222 76.58 260.155 76.96 261.262 76.96C262.368 76.96 263.302 76.58 264.062 75.82C264.822 75.0467 265.202 74.1067 265.202 73C265.202 71.8933 264.822 70.96 264.062 70.2C263.302 69.4267 262.368 69.04 261.262 69.04C260.155 69.04 259.222 69.4267 258.462 70.2C257.702 70.96 257.322 71.8933 257.322 73C257.322 74.1067 257.702 75.0467 258.462 75.82ZM275.526 68V69.28H271.986V78H270.666V69.28H267.126V68H275.526ZM284.334 68H285.734L281.454 78.92C281.068 79.9067 280.514 80.68 279.794 81.24C279.088 81.8133 278.294 82.0667 277.414 82V80.76C278.614 80.8933 279.528 80.2 280.154 78.68L280.414 78.06L275.934 68H277.334L281.094 76.38L284.334 68Z" fill="white"/>
</g>
<path opacity="0.1" d="M14 41L23.5263 65H4.47372L14 41Z" fill="white"/>
<path opacity="0.1" d="M14 56L23.5263 80H4.47372L14 56Z" fill="white"/>
<rect opacity="0.3" x="201" y="35" width="2" height="50" fill="white"/>
<defs>
<filter id="filter0_d" x="0.692871" y="0" width="217.009" height="142" filterUnits="userSpaceOnUse" color-interpolation-filters="sRGB">
<feFlood flood-opacity="0" result="BackgroundImageFix"/>
<feColorMatrix in="SourceAlpha" type="matrix" values="0 0 0 0 0 0 0 0 0 0 0 0 0 0 0 0 0 0 127 0"/>
<feOffset dy="10"/>
<feGaussianBlur stdDeviation="25"/>
<feColorMatrix type="matrix" values="0 0 0 0 1 0 0 0 0 1 0 0 0 0 1 0 0 0 0.6 0"/>
<feBlend mode="normal" in2="BackgroundImageFix" result="effect1_dropShadow"/>
<feBlend mode="normal" in="SourceGraphic" in2="effect1_dropShadow" result="shape"/>
</filter>
<filter id="filter1_d" x="184.4" y="4" width="202.1" height="138.01" filterUnits="userSpaceOnUse" color-interpolation-filters="sRGB">
<feFlood flood-opacity="0" result="BackgroundImageFix"/>
<feColorMatrix in="SourceAlpha" type="matrix" values="0 0 0 0 0 0 0 0 0 0 0 0 0 0 0 0 0 0 127 0"/>
<feOffset dy="10"/>
<feGaussianBlur stdDeviation="25"/>
<feColorMatrix type="matrix" values="0 0 0 0 1 0 0 0 0 1 0 0 0 0 1 0 0 0 0.6 0"/>
<feBlend mode="normal" in2="BackgroundImageFix" result="effect1_dropShadow"/>
<feBlend mode="normal" in="SourceGraphic" in2="effect1_dropShadow" result="shape"/>
</filter>
</defs>
</svg>
