<svg width="19" height="19" viewBox="0 0 19 19" fill="none" xmlns="http://www.w3.org/2000/svg">
<path fill-rule="evenodd" clip-rule="evenodd" d="M7.71295 15.4259C3.45321 15.4259 0 11.9727 0 7.71295C0 3.45321 3.45321 0 7.71295 0C11.9727 0 15.4259 3.45321 15.4259 7.71295C15.4259 9.49533 14.8213 11.1365 13.806 12.4426L19.0001 17.6366L17.6366 19.0001L12.4426 13.806C11.1365 14.8213 9.49533 15.4259 7.71295 15.4259ZM13.4977 7.71295C13.4977 10.9078 10.9078 13.4977 7.71295 13.4977C4.51814 13.4977 1.92824 10.9078 1.92824 7.71295C1.92824 4.51814 4.51814 1.92824 7.71295 1.92824C10.9078 1.92824 13.4977 4.51814 13.4977 7.71295Z" fill="white"/>
</svg>
