<svg width="377" height="184" viewBox="0 0 377 184" fill="none" xmlns="http://www.w3.org/2000/svg">
<path d="M0 32.7829V60.173L1.52588e-05 229.906H376.767V66.985H370.242V68.688H367.263V64.5724H363.149V62.4436H360.737V66.1335H358.609V68.1203H354.07V65.9916H352.084V64.1466H344.991V66.2754H342.722V68.2622H334.636V53.0771H331.373V51.516H326.834V53.3609H324.564V67.6946H322.295V52.9352H319.883V51.516H315.486V53.3609H312.648V65.7077H308.96V66.8431H305.13V56.4831H300.307V58.4699H296.619V60.8825H295.2V66.5592H290.519V63.437H286.973V46.1231H261.297V66.985H258.176V59.6053H256.758V55.4897H252.502V53.219H250.09V48.5357H241.295V52.3675H240.019V56.7669H238.458V58.328H233.777V52.7933H232.075V48.3938H226.968V25.687H216.896V20.4361H214.343V25.687H208.243V48.5357H205.406V60.173H201.434V62.7275H197.178V38.3177H195.051V24.1259H192.072V22.7068H189.518V18.4493H183.844V21.2876H180.014V19.4427H171.361V22.281H169.659V24.4098H167.531V37.75H163.417V60.5987H160.864V25.5451H157.743V22.7068H145.118V25.829H141.571V45.2716H132.776V49.9549H131.074V23.984H128.946V21.2876H117.456V23.984H115.47V26.8224H112.491V25.687H97.88V16.7462H95.1847V11.3534H92.3476V9.50846H89.2268V6.95395H85.113V9.65038H82.4178V11.9211H80.4318V17.172H77.311V22.5649H73.1972V26.2547H71.7786V30.0865H68.6578V0H49.933V14.4756H41.4217V24.2679H40.145V29.6607H37.166V27.1062H35.7475V22.7068H23.9735V28.9511H22.5549V32.3572H18.7249V30.0865H3.40451V32.7829H0Z" fill="url(#paint0_linear)"/>
<defs>
<linearGradient id="paint0_linear" x1="170.226" y1="0" x2="170.226" y2="229.906" gradientUnits="userSpaceOnUse">
<stop stop-color="#252930"/>
<stop offset="1" stop-color="#252930" stop-opacity="0"/>
</linearGradient>
</defs>
</svg>
