<svg width="241" height="94" viewBox="0 0 241 94" fill="none" xmlns="http://www.w3.org/2000/svg">
<path opacity="0.3" d="M241 85L226 76.3397V93.6603L241 85ZM0.5 0V5.41667H3.5V0H0.5ZM0.5 16.25V27.0833H3.5V16.25H0.5ZM0.5 37.9167V48.75H3.5V37.9167H0.5ZM0.5 59.5833V65H3.5V59.5833H0.5ZM0.5 65C0.5 66.434 0.640593 67.8366 0.909199 69.1943L3.85216 68.6121C3.62129 67.4451 3.5 66.2374 3.5 65H0.5ZM4.12224 76.9468C5.69148 79.2907 7.70925 81.3085 10.0532 82.8778L11.7222 80.3849C9.70407 79.0338 7.96623 77.2959 6.61514 75.2778L4.12224 76.9468ZM17.8057 86.0908C19.1634 86.3594 20.566 86.5 22 86.5V83.5C20.7626 83.5 19.5549 83.3787 18.3879 83.1478L17.8057 86.0908ZM22 86.5H26.9773V83.5H22V86.5ZM36.9318 86.5H46.8864V83.5H36.9318V86.5ZM56.8409 86.5H66.7954V83.5H56.8409V86.5ZM76.75 86.5H86.7045V83.5H76.75V86.5ZM96.6591 86.5H106.614V83.5H96.6591V86.5ZM116.568 86.5H126.523V83.5H116.568V86.5ZM136.477 86.5H146.432V83.5H136.477V86.5ZM156.386 86.5H166.341V83.5H156.386V86.5ZM176.295 86.5H186.25V83.5H176.295V86.5ZM196.205 86.5H206.159V83.5H196.205V86.5ZM216.114 86.5H226.068V83.5H216.114V86.5Z" fill="white"/>
</svg>
