<svg width="14" height="16" viewBox="0 0 14 16" fill="none" xmlns="http://www.w3.org/2000/svg">
<path d="M10.7208 3.245L12.0877 0L13.4545 3.245V6.51H10.7152V3.245H10.7208ZM10.6308 6.995H13.5445L13.8707 7.725H10.299L10.6308 6.995ZM10.1696 8.215H13.9776L14.0001 14.785H10.1696V8.215ZM10.1696 16V15.27H14.0001V16H10.1696Z" fill="white"/>
<path d="M5.636 3.245L7.00282 0L8.36963 3.245V6.51H5.63038V3.245H5.636ZM5.54601 6.995H8.45962L8.78586 7.725H5.21415L5.54601 6.995ZM5.08478 8.215H8.89273L8.91523 14.785H5.08478V8.215ZM5.08478 16V15.27H8.91523V16H5.08478Z" fill="white"/>
<path d="M0.551225 3.245L1.91804 0L3.28485 3.245V6.51H0.551225V3.245ZM0.461229 6.995H3.37485L3.70108 7.725H0.134994L0.461229 6.995ZM0 8.215H3.80795L3.83045 14.785H0V8.215ZM0 16V15.27H3.83045V16H0Z" fill="white"/>
</svg>
