<svg width="21" height="21" viewBox="0 0 21 21" fill="none" xmlns="http://www.w3.org/2000/svg">
<g clip-path="url(#clip0_2364_5863)">
<path d="M20.3261 4.98936C20.1704 4.79 19.9316 4.67348 19.6786 4.67348H4.04078L3.80833 2.0839C3.77031 1.66042 3.41539 1.33594 2.99023 1.33594H1.32138C0.867744 1.33594 0.5 1.70368 0.5 2.15732C0.5 2.61096 0.867744 2.9787 1.32138 2.9787H2.23929L3.13961 13.0089C3.1398 13.0207 3.13921 13.0323 3.13988 13.0442C3.14172 13.0757 3.14582 13.1066 3.15107 13.1369L3.184 13.5036C3.18462 13.5106 3.18533 13.5175 3.18615 13.5243C3.28597 14.3891 3.72791 15.1384 4.36698 15.6447C4.03585 16.0676 3.8377 16.5993 3.8377 17.1768C3.8377 18.5499 4.95482 19.6671 6.32789 19.6671C7.70101 19.6671 8.81812 18.5499 8.81812 17.1768C8.81812 16.8794 8.76552 16.594 8.66945 16.3293H13.165C13.0689 16.594 13.0163 16.8794 13.0163 17.1768C13.0163 18.5499 14.1334 19.6671 15.5065 19.6671C16.8797 19.6671 17.9968 18.5499 17.9968 17.1768C17.9968 15.8037 16.8797 14.6866 15.5065 14.6866H6.33345C5.70951 14.6866 5.1658 14.3102 4.93112 13.7617L18.0579 12.9902C18.4162 12.9692 18.7194 12.7178 18.8065 12.3695L20.4755 5.69403C20.5368 5.44871 20.4817 5.18876 20.3261 4.98936Z" fill="white"/>
</g>
<defs>
<clipPath id="clip0_2364_5863">
<rect width="20" height="20" fill="white" transform="translate(0.5 0.5)"/>
</clipPath>
</defs>
</svg>
