<svg width="16" height="16" viewBox="0 0 16 16" fill="none" xmlns="http://www.w3.org/2000/svg">
<path d="M16 6.5C16 2.91 12.4181 0 8 0C3.58187 0 0 2.91 0 6.5C0 7.6075 0.342933 8.649 0.944 9.5615C0.684267 10.486 0.533333 11.196 0.533333 11.5C0.533333 12.154 1.06667 13 2.13333 13H3.73333V15C3.73333 15.5525 4.21067 16 4.8 16H5.86667V14.5C5.86667 14.224 6.1056 14 6.4 14C6.6944 14 6.93333 14.224 6.93333 14.5V16H9.06667V14.5C9.06667 14.224 9.3056 14 9.6 14C9.8944 14 10.1333 14.224 10.1333 14.5V16H11.2C11.7893 16 12.2667 15.5525 12.2667 15V13H13.8667C14.9333 13 15.4667 12.154 15.4667 11.5C15.4667 11.196 15.3157 10.486 15.056 9.5615C15.6571 8.649 16 7.6075 16 6.5ZM2.66667 8C2.66667 6.8955 3.62187 6 4.8 6C5.97813 6 6.93333 6.8955 6.93333 8C6.93333 9.1045 5.97813 10 4.8 10C3.62187 10 2.66667 9.1045 2.66667 8ZM11.2 10C10.0219 10 9.06667 9.1045 9.06667 8C9.06667 6.8955 10.0219 6 11.2 6C12.3781 6 13.3333 6.8955 13.3333 8C13.3333 9.1045 12.3781 10 11.2 10Z" fill="white"/>
</svg>
