<svg width="22" height="22" viewBox="0 0 22 22" fill="none" xmlns="http://www.w3.org/2000/svg">
<path d="M11 0C4.93466 0 0 4.93466 0 11C0 17.0653 4.93466 22 11 22C17.0653 22 22 17.0653 22 11C22 4.93466 17.0653 0 11 0ZM14.9827 13.7865C15.0646 13.8643 15.1301 13.9577 15.1753 14.0612C15.2205 14.1647 15.2446 14.2762 15.246 14.3891C15.2475 14.502 15.2263 14.6141 15.1837 14.7187C15.1412 14.8234 15.0781 14.9184 14.9983 14.9983C14.9184 15.0781 14.8234 15.1412 14.7187 15.1837C14.6141 15.2263 14.502 15.2475 14.3891 15.246C14.2762 15.2446 14.1647 15.2205 14.0612 15.1753C13.9577 15.1301 13.8643 15.0646 13.7865 14.9827L11 12.1968L8.21351 14.9827C8.05353 15.1347 7.84052 15.2182 7.61987 15.2154C7.39923 15.2126 7.18841 15.1237 7.03238 14.9676C6.87635 14.8116 6.78744 14.6008 6.78462 14.3801C6.78179 14.1595 6.86527 13.9465 7.01726 13.7865L9.80322 11L7.01726 8.21351C6.86527 8.05353 6.78179 7.84052 6.78462 7.61987C6.78744 7.39923 6.87635 7.18841 7.03238 7.03238C7.18841 6.87635 7.39923 6.78744 7.61987 6.78462C7.84052 6.78179 8.05353 6.86527 8.21351 7.01726L11 9.80322L13.7865 7.01726C13.9465 6.86527 14.1595 6.78179 14.3801 6.78462C14.6008 6.78744 14.8116 6.87635 14.9676 7.03238C15.1237 7.18841 15.2126 7.39923 15.2154 7.61987C15.2182 7.84052 15.1347 8.05353 14.9827 8.21351L12.1968 11L14.9827 13.7865Z" fill="#818181"/>
</svg>
