<svg width="16" height="16" viewBox="0 0 16 16" fill="none" xmlns="http://www.w3.org/2000/svg">
<path d="M13.125 6H11V3.5C11 2.70435 10.6839 1.94129 10.1213 1.37868C9.55871 0.81607 8.79565 0.5 8 0.5C7.20435 0.5 6.44129 0.81607 5.87868 1.37868C5.31607 1.94129 5 2.70435 5 3.5V6H2.875C2.77554 6 2.68016 6.03951 2.60983 6.10984C2.53951 6.18016 2.5 6.27554 2.5 6.375V15.125C2.5 15.2245 2.53951 15.3198 2.60983 15.3902C2.68016 15.4605 2.77554 15.5 2.875 15.5H13.125C13.2245 15.5 13.3198 15.4605 13.3902 15.3902C13.4605 15.3198 13.5 15.2245 13.5 15.125V6.375C13.5 6.27554 13.4605 6.18016 13.3902 6.10984C13.3198 6.03951 13.2245 6 13.125 6ZM9.8125 6H6.1875V3.47656C6.1875 2.99586 6.37846 2.53484 6.71837 2.19493C7.05828 1.85502 7.5193 1.66406 8 1.66406C8.4807 1.66406 8.94172 1.85502 9.28163 2.19493C9.62154 2.53484 9.8125 2.99586 9.8125 3.47656V6Z" fill="#A6A6A6"/>
</svg>
