<svg width="142" height="28" viewBox="0 0 142 28" fill="none" xmlns="http://www.w3.org/2000/svg">
<path d="M9.45443 4.2529C9.9302 3.03289 10.7707 1.98935 11.8614 1.2646C12.942 0.533717 14.2182 0.146239 15.5228 0.152917H40.5204L31.0762 23.4575C30.5995 24.68 29.7549 25.7241 28.6591 26.4458C27.5783 27.1742 26.3008 27.555 24.9976 27.5371H0L9.45443 4.2529ZM11.4942 19.6533H23.2536C23.5729 19.6593 23.8851 19.5588 24.1409 19.3677C24.3988 19.1901 24.6005 18.9424 24.7223 18.6538L29.067 8.03671H17.277C16.9528 8.0208 16.6323 8.11205 16.365 8.29637C16.0977 8.48069 15.8985 8.74784 15.7982 9.0566L11.4942 19.6533Z" fill="#E79D32"/>
<path d="M76.8185 1.90728C77.0411 1.33768 77.4371 0.852466 77.9505 0.520222C78.457 0.179854 79.0537 -0.00128711 79.664 7.54769e-05H86.0179L82.1423 9.5463H93.5651C93.9287 9.54307 94.2834 9.43314 94.585 9.23013C94.8968 9.0275 95.1361 8.73107 95.2684 8.38362L97.9303 1.87668C98.1595 1.30761 98.5629 0.82565 99.0828 0.499824C99.5779 0.169903 100.16 -0.0041594 100.755 7.54769e-05H107.018L101.826 12.7998C101.334 14.016 100.487 15.0557 99.3959 15.7834C98.3043 16.5112 97.0188 16.8931 95.7069 16.8793H90.2709L86.7726 25.4975C86.5522 26.054 86.1681 26.5305 85.6712 26.8641C85.1801 27.2048 84.5962 27.3863 83.9985 27.3843H77.6038L81.8567 16.8997H70.7195L76.8185 1.90728Z" fill="white"/>
<path d="M100.97 27.537L116.268 13.2585L107.67 0.152832H114.687C115.797 0.159476 116.887 0.442753 117.859 0.977011C118.832 1.51127 119.655 2.27963 120.256 3.21252L122.877 7.2921L130.455 0.152832H142L127.232 13.8296L136.176 27.537H125.569L120.623 19.9592L112.464 27.537H100.97Z" fill="white"/>
<path d="M44.4266 0.152832H53.8912L58.9907 15.0535L63.8454 2.81476C64.1554 2.03524 64.6905 1.36573 65.3826 0.891626C66.0747 0.417525 66.8923 0.160324 67.7312 0.152832H74.3197L63.4782 27.5982H54.0544L48.9549 12.7077L44.5694 23.7532C44.1156 24.8867 43.3331 25.8585 42.3226 26.5437C41.3121 27.2289 40.1197 27.5961 38.8987 27.5982H33.5749L44.4266 0.152832Z" fill="white"/>
</svg>
