<svg width="128" height="100" viewBox="0 0 128 100" fill="none" xmlns="http://www.w3.org/2000/svg">
<path fill-rule="evenodd" clip-rule="evenodd" d="M13.4456 64.3799L38.7746 2.15661C38.9423 1.75675 39.0694 1.4291 39.1734 1.16111C39.4208 0.523829 39.5372 0.223866 39.7552 0.0923372C39.949 -0.024627 40.2232 -0.0083958 40.7411 0.0222692C41.0746 0.0420177 41.5093 0.0677526 42.0887 0.0677526H108.967C114.181 0.0677526 118.202 0.907675 121.03 2.58752C123.946 4.17895 125.935 6.34507 126.995 9.08587C128.056 11.7383 128.277 14.8327 127.658 18.3692C127.128 21.9057 126.067 25.5749 124.477 29.3766L106.581 71.417C104.283 76.8101 101.985 81.3192 99.6873 84.9441C97.3896 88.4806 94.7825 91.3098 91.8661 93.4318C89.0381 95.5537 85.724 97.0567 81.9239 97.9408C78.2121 98.7365 73.7492 99.1344 68.535 99.1344L0 97.4103L10.4499 71.7391L35.0831 72.604C35.1197 72.6056 35.1569 72.6069 35.1945 72.608L35.4866 72.6182L35.4869 72.6106H69.8637C72.659 72.6106 75.0515 72.4142 77.0413 72.0214C79.0785 71.585 80.8551 70.843 82.3712 69.7956C83.9346 68.7481 85.3322 67.3515 86.564 65.6057C87.7958 63.8163 89.0276 61.5905 90.2594 58.9282L99.8532 38.1753C100.706 36.2986 101.275 34.4874 101.559 32.7416C101.89 30.9958 101.772 29.4683 101.203 28.159C100.635 26.806 99.5689 25.7367 98.0055 24.9511C96.4895 24.1219 94.3338 23.7072 91.5386 23.7072H56.7167C55.1533 23.7072 54.0636 24.3837 53.4477 25.7367L35.2868 65.1468L13.4456 64.3799Z" fill="url(#paint0_linear_6_56)"/>
<defs>
<linearGradient id="paint0_linear_6_56" x1="36.0405" y1="7.0454" x2="90.3403" y2="87.8389" gradientUnits="userSpaceOnUse">
<stop stop-color="#E3256B" stop-opacity="0.72"/>
<stop offset="0.568137" stop-color="#E3256B" stop-opacity="0.53"/>
<stop offset="0.875" stop-color="#E3256B" stop-opacity="0.87"/>
<stop offset="1" stop-color="#E3256B"/>
</linearGradient>
</defs>
</svg>
