<svg width="62.000000" height="63.000000" viewBox="0 0 12 13" fill="none" xmlns="http://www.w3.org/2000/svg" xmlns:xlink="http://www.w3.org/1999/xlink">
	<desc>
			Created with Pixso.
	</desc>
	<defs>
		<clipPath id="clip67_61">
			<rect id="фрейм 1" width="12.000000" height="13.000000" fill="white" fill-opacity="0"/>
		</clipPath>
		<linearGradient x1="-0.523211" y1="22.045826" x2="21.581461" y2="0.874068" id="paint_linear_67_63_0" gradientUnits="userSpaceOnUse">
			<stop offset="0.050000" stop-color="#E62E6B"/>
			<stop offset="0.950000" stop-color="#E62E6B"/>
		</linearGradient>
	</defs>
	<g clip-path="url(#clip67_61)">
		<path id="path" d="M6.39 0.1L11.55 2.95C11.83 3.11 11.97 3.33 11.97 3.64L11.97 9.34C11.97 9.65 11.83 9.88 11.55 10.03L6.39 12.88C6.12 13.03 5.84 13.03 5.57 12.88L0.41 10.03C0.13 9.88 0 9.65 0 9.34L0 3.64C0 3.33 0.13 3.11 0.41 2.95L5.57 0.1C5.84 -0.05 6.12 -0.05 6.39 0.1Z" fill="url(#paint_linear_67_63_0)" fill-opacity="1.000000" fill-rule="nonzero"/>
		<path id="path" d="M3.67 8.35L3.67 5.23L5.98 3.97L8.29 5.23L8.29 7.75L5.98 9.01L4.76 8.34L4.76 5.84L5.98 5.17L7.2 5.84L7.2 7.15L5.98 7.81L5.84 7.74L5.84 6.44L6.53 6.07L5.98 5.77L5.3 6.14L5.3 8.04L5.98 8.41L7.74 7.45L7.74 5.54L5.98 4.57L4.22 5.54L4.22 8.64L5.98 9.61L8.83 8.05L8.83 4.93L5.98 3.37L3.13 4.93L3.13 8.05L3.67 8.35Z" fill="#FFFFFF" fill-opacity="1.000000" fill-rule="nonzero"/>
	</g>
</svg>
