<svg width="12" height="10" viewBox="0 0 12 10" fill="none" xmlns="http://www.w3.org/2000/svg">
<path d="M11.048 0.97863C10.4268 0.347563 9.57449 0 8.6478 0C7.95511 0 7.32074 0.205125 6.76227 0.609628C6.48047 0.81381 6.22513 1.06361 6 1.35518C5.77496 1.0637 5.51953 0.81381 5.23764 0.609628C4.67926 0.205125 4.04489 0 3.3522 0C2.42551 0 1.57306 0.347563 0.951874 0.97863C0.338104 1.60232 0 2.45438 0 3.37795C0 4.32854 0.378204 5.19869 1.19019 6.11644C1.91656 6.93736 2.96054 7.77073 4.16949 8.73572C4.58231 9.06528 5.05023 9.43882 5.5361 9.83672C5.66446 9.94203 5.82916 10 6 10C6.17075 10 6.33554 9.94203 6.46371 9.83689C6.94958 9.43891 7.41779 9.06519 7.83078 8.73546C9.03955 7.77064 10.0835 6.93736 10.8099 6.11635C11.6219 5.19869 12 4.32854 12 3.37787C12 2.45438 11.6619 1.60232 11.048 0.97863Z" fill="#EB5757"/>
</svg>
