<svg width="16" height="16" viewBox="0 0 16 16" fill="none" xmlns="http://www.w3.org/2000/svg">
<path fill-rule="evenodd" clip-rule="evenodd" d="M15.0494 16C12.9054 16 7.99222 16 7.99222 16C7.99222 16 3.04328 16 0.917206 16C0.256156 16 -0.0475687 15.6437 0.00602984 14.9844C0.148959 13.9332 0.720678 12.3474 2.81102 11.6704C5.02643 10.8151 5.18723 10.7261 5.18723 10.7261C5.18723 10.7261 5.70535 9.87082 5.93761 9.81737C6.16987 9.76392 5.97334 9.42539 5.93761 9.3363C5.90187 9.24722 5.59815 9.3363 5.59815 8.1069C5.59815 7.6971 5.65175 7.67929 5.45522 7.67929C5.25869 7.67929 4.79417 7.39421 4.79417 6.41425C4.79417 5.4343 4.79417 5.38085 4.97283 5.36303C4.9907 4.98886 4.79417 4.38307 4.79417 2.99332C4.79417 1.62138 5.90187 0.320713 8.01009 0.320713C8.61754 0.320713 9.13566 0.0356347 9.70737 0C9.77884 0.178174 9.86817 0.481069 9.99323 0.552339C10.4399 0.837416 11.0116 1.56793 11.226 3.01114C11.226 4.38307 11.0116 5.00668 11.0473 5.38085C11.226 5.41648 11.226 5.45212 11.226 6.43207C11.226 7.41203 10.7615 7.6971 10.565 7.6971C10.3684 7.6971 10.422 7.73274 10.422 8.12472C10.422 9.35412 10.1183 9.26503 10.0826 9.35412C10.0468 9.44321 9.8503 9.78174 10.0826 9.83519C10.3148 9.88864 10.8329 10.7439 10.8329 10.7439C10.8329 10.7439 10.958 10.833 13.1734 11.6704C15.2816 12.3474 15.8533 13.951 15.9963 15.0022C16.032 15.6971 15.8176 16 15.0494 16Z" fill="white"/>
</svg>
