<svg width="438" height="438" xmlns="http://www.w3.org/2000/svg">

 <g>
  <title>background</title>
  <rect fill="none" id="canvas_background" height="402" width="582" y="-1" x="-1"/>
 </g>
 <g>
  <title>Layer 1</title>
  <path fill="#ffffff" id="svg_1" d="m316.198,66.434c-6.427,-41.336 -42.435,-66.434 -97.197,-66.434c-54.763,0 -90.772,25.098 -97.199,66.434c-28.08,26.614 -44.129,63.79 -44.129,102.497l0,259.069c0,5.523 4.477,10 10,10c5.523,0 10,-4.477 10,-10l0,-259.069c0,-25.67 8.227,-50.559 23.088,-71.089l0,103.783c0,23.336 8.185,44.794 21.827,61.666c0.216,0.301 0.452,0.59 0.704,0.87c18.034,21.794 45.278,35.703 75.709,35.703c30.213,0 57.279,-13.713 75.315,-35.238c0.522,-0.511 0.974,-1.07 1.361,-1.662c13.484,-16.821 21.563,-38.152 21.563,-61.338l0,-103.784c14.861,20.53 23.088,45.419 23.088,71.089l0,259.069c0,5.523 4.477,10 10,10c5.523,0 10,-4.477 10,-10l0,-259.069c0,-38.707 -16.05,-75.883 -44.13,-102.497zm-175.438,13.75c0,-54.32 54.716,-60.184 78.241,-60.184c23.524,0 78.239,5.864 78.239,60.184l0,121.441c0,14.588 -4.025,28.25 -11.006,39.953c-18.112,-17.295 -41.988,-27.01 -67.233,-27.01c-25.243,0 -49.122,9.715 -67.234,27.011c-6.981,-11.703 -11.006,-25.365 -11.006,-39.954l0,-121.441l-0.001,0zm23.436,177.209c14.571,-14.596 34.12,-22.825 54.805,-22.825c20.686,0 40.234,8.229 54.804,22.825c-14.127,13.885 -33.478,22.471 -54.804,22.471c-21.326,-0.001 -40.677,-8.587 -54.805,-22.471z"/>
  <g id="svg_2"/>
  <g id="svg_3"/>
  <g id="svg_4"/>
  <g id="svg_5"/>
  <g id="svg_6"/>
  <g id="svg_7"/>
  <g id="svg_8"/>
  <g id="svg_9"/>
  <g id="svg_10"/>
  <g id="svg_11"/>
  <g id="svg_12"/>
  <g id="svg_13"/>
  <g id="svg_14"/>
  <g id="svg_15"/>
  <g id="svg_16"/>
 </g>
</svg>