<svg width="38" height="38" viewBox="0 0 38 38" fill="none" xmlns="http://www.w3.org/2000/svg">
<g id="24 / security / shield-ok">
<rect id="Rectangle 60" opacity="0.4" width="38" height="38" fill="url(#paint0_radial)"/>
<path id="icon" fill-rule="evenodd" clip-rule="evenodd" d="M19 30C13 27.3271 10 24.6604 10 22V12C10 11.2324 10.2946 11.054 11.1099 10.5603L11.1099 10.5603C11.3568 10.4108 11.6514 10.2324 12 10C12.1618 9.89214 15.5632 8 19 8C21.9952 8 24.5 9 26 10C26.3486 10.2324 26.6432 10.4108 26.8901 10.5603C27.7054 11.054 28 11.2324 28 12C28.0197 12.2172 28.01 16.8371 28.0038 19.7947C28.0017 20.8033 28 21.6186 28 22C28 24.6667 25 27.3333 19 30ZM26 22C26 21.7697 26.0006 21.3838 26.0018 20.7547L26.0059 18.8014C26.0072 18.1695 26.0082 17.6272 26.009 17.1098C26.0127 14.8776 26.0117 12.9618 26.0096 12.3693L25.8722 12.284C25.5488 12.0834 25.1274 11.8219 24.8906 11.6641C23.4143 10.6799 21.2602 10 19 10C16.8381 10 14.0286 11.0513 13.1094 11.6641C12.8726 11.8219 12.4512 12.0834 12.1278 12.284L12.1278 12.284L12 12.3633V22C12 23.5085 14.2291 25.5687 19.0009 27.802C23.7722 25.5737 26 23.5142 26 22ZM22.2929 15.2929L18 19.5858L15.7071 17.2929L14.2929 18.7071L18 22.4142L23.7071 16.7071L22.2929 15.2929Z" fill="#27AE60"/>
</g>
<defs>
<radialGradient id="paint0_radial" cx="0" cy="0" r="1" gradientUnits="userSpaceOnUse" gradientTransform="translate(19 19) rotate(90) scale(19)">
<stop stop-color="#27AE60"/>
<stop offset="1" stop-color="#27AE60" stop-opacity="0"/>
</radialGradient>
</defs>
</svg>
