<svg width="485.206055" height="34.839844" viewBox="0 0 485.206 34.8398" fill="none" xmlns="http://www.w3.org/2000/svg" xmlns:xlink="http://www.w3.org/1999/xlink">
	<desc>
			Created with Pixso.
	</desc>
	<defs/>
	<path id="DETROIT ROLE PLAY" d="M155.16 1.96Q151.38 0 146.56 0Q143.06 0 139.98 1.12Q139.48 1.3 139 1.51Q135.58 2.99 133.18 5.46Q133.13 5.52 133.07 5.57Q132.79 5.88 132.51 6.19Q130.48 8.54 129.26 11.58Q128.85 12.62 128.56 13.69Q127.88 16.19 127.88 18.87Q127.88 23.13 129.61 26.51Q129.8 26.89 130.01 27.25Q131.04 29 132.44 30.36Q133.97 31.84 135.93 32.87Q139.72 34.83 144.55 34.83Q148.04 34.83 151.13 33.71Q151.62 33.53 152.1 33.32Q155.53 31.84 157.93 29.37Q157.98 29.31 158.03 29.26Q158.35 28.92 158.65 28.57Q160.64 26.25 161.83 23.25Q162.22 22.28 162.49 21.29Q163.21 18.72 163.21 15.94Q163.21 11.73 161.52 8.38Q161.31 7.97 161.08 7.58Q160.06 5.83 158.66 4.47Q157.14 2.98 155.16 1.96ZM276.41 1.96Q272.63 0 267.81 0Q264.31 0 261.22 1.12Q260.73 1.3 260.25 1.51Q256.82 2.99 254.43 5.46Q254.37 5.52 254.32 5.57Q254.03 5.88 253.76 6.19Q251.73 8.54 250.51 11.58Q250.1 12.62 249.81 13.69Q249.13 16.19 249.13 18.87Q249.13 23.13 250.85 26.51Q251.05 26.89 251.26 27.25Q252.29 29 253.69 30.36Q255.21 31.84 257.18 32.87Q260.97 34.83 265.79 34.83Q269.29 34.83 272.38 33.71Q272.87 33.53 273.35 33.32Q276.78 31.84 279.18 29.37Q279.23 29.31 279.28 29.26Q279.6 28.92 279.9 28.57Q281.89 26.25 283.08 23.25Q283.46 22.28 283.74 21.29Q284.46 18.72 284.46 15.94Q284.46 11.73 282.77 8.38Q282.56 7.97 282.33 7.58Q281.31 5.83 279.91 4.47Q278.38 2.98 276.41 1.96ZM26.7 1.75Q23.73 0.62 20.17 0.62L7.14 0.62L0 34.21L14.94 34.21Q19.91 34.21 23.88 32.7Q27.85 31.19 30.42 28.53Q31.18 27.74 31.83 26.88Q33.39 24.8 34.34 22.26Q35.7 18.66 35.7 14.41Q35.7 13.06 35.44 11.77Q35.17 10.47 34.62 9.22Q34.14 8.09 33.47 7.08Q32.67 5.86 31.61 4.81Q29.68 2.89 26.7 1.75ZM47.44 21.28L62.85 21.28L64.57 13.17L49.16 13.17L50.1 8.73L66.54 8.73L68.27 0.62L42.52 0.62L35.37 34.21L61.14 34.21L62.87 26.1L46.41 26.1L47.44 21.28ZM87.35 9.02L96.69 9.02L98.48 0.62L70.5 0.62L68.71 9.02L78.04 9.02L72.69 34.21L82 34.21L87.35 9.02ZM120 1.44Q117.81 0.62 115.15 0.62L101.27 0.62L94.12 34.21L103.43 34.21L105.97 22.28L106.4 22.28L113.48 34.21L123.9 34.21L115.93 21.98Q118.81 21.5 120.94 20.36Q123.06 19.21 124.25 17.64Q125.46 16.07 126.01 14.33Q126.56 12.57 126.56 10.55Q126.56 9.25 126.23 8.04Q126.06 7.4 125.79 6.78Q125.47 6.02 125.03 5.34Q124.43 4.41 123.61 3.62Q122.2 2.25 120 1.44ZM163.15 34.21L172.45 34.21L179.58 0.62L170.27 0.62L163.15 34.21ZM199.24 9.02L208.58 9.02L210.37 0.62L182.39 0.62L180.6 9.02L189.92 9.02L184.58 34.21L193.88 34.21L199.24 9.02ZM241.25 1.44Q239.06 0.62 236.39 0.62L222.52 0.62L215.37 34.21L224.68 34.21L227.22 22.28L227.65 22.28L234.73 34.21L245.15 34.21L237.18 21.98Q240.06 21.5 242.18 20.36Q244.31 19.21 245.5 17.64Q246.71 16.07 247.26 14.33Q247.81 12.57 247.81 10.55Q247.81 9.25 247.48 8.04Q247.3 7.4 247.04 6.78Q246.71 6.02 246.28 5.34Q245.68 4.41 244.86 3.62Q243.45 2.25 241.25 1.44ZM311.06 25.81L295.46 25.81L300.82 0.62L291.52 0.62L284.37 34.21L309.25 34.21L311.06 25.81ZM324.11 21.28L339.52 21.28L341.25 13.17L325.84 13.17L326.77 8.73L343.22 8.73L344.94 0.62L319.19 0.62L312.04 34.21L337.81 34.21L339.55 26.1L323.08 26.1L324.11 21.28ZM361.02 34.21L363.28 23.63L369.38 23.63Q375.57 23.63 379.35 20.61Q379.67 20.36 379.97 20.08Q381.3 18.87 382.17 17.38Q383.85 14.53 383.85 10.69Q383.85 9.24 383.45 7.91Q383.29 7.37 383.06 6.85Q382.71 6.03 382.23 5.3Q381.65 4.4 380.87 3.64Q379.45 2.25 377.25 1.44Q375.06 0.62 372.42 0.62L358.86 0.62L351.72 34.21L361.02 34.21ZM408.98 25.81L393.38 25.81L398.74 0.62L389.44 0.62L382.29 34.21L407.17 34.21L408.98 25.81ZM434.99 34.21L444.19 34.21L438.76 0.62L428 0.62L408.49 34.21L418.5 34.21L422 27.8L434.16 27.8L434.99 34.21ZM465.97 34.21L468.69 21.5L485.2 0.62L474.54 0.62L465.33 12.98L461.15 0.62L451.47 0.62L459.51 20.77L456.67 34.21L465.97 34.21ZM142.42 9.52Q144.07 8.73 146.1 8.73Q148.57 8.73 150.35 9.83Q151.04 10.25 151.62 10.83Q152.07 11.28 152.42 11.79Q153.73 13.7 153.73 16.51Q153.73 19.29 152.58 21.47Q152.04 22.47 151.26 23.35Q150.11 24.63 148.67 25.32Q147.02 26.1 145 26.1Q142.55 26.1 140.76 25.01Q140.07 24.59 139.47 24Q139.01 23.53 138.65 23Q137.36 21.1 137.36 18.32Q137.36 15.52 138.53 13.35Q139.06 12.35 139.83 11.49Q140.99 10.2 142.42 9.52ZM263.67 9.52Q265.32 8.73 267.35 8.73Q269.82 8.73 271.6 9.83Q272.29 10.25 272.87 10.83Q273.32 11.28 273.67 11.79Q274.98 13.7 274.98 16.51Q274.98 19.29 273.83 21.47Q273.29 22.47 272.51 23.35Q271.35 24.63 269.92 25.32Q268.27 26.1 266.25 26.1Q263.8 26.1 262.01 25.01Q261.31 24.59 260.72 24Q260.26 23.53 259.9 23Q258.61 21.1 258.61 18.32Q258.61 15.52 259.78 13.35Q260.31 12.35 261.08 11.49Q262.23 10.2 263.67 9.52ZM107.55 14.77L108.83 8.8L113.78 8.8Q115.4 8.8 116.37 9.5Q116.81 9.82 117.05 10.26Q117.33 10.76 117.33 11.41Q117.33 12.16 117.03 12.77Q116.75 13.37 116.18 13.83Q115.04 14.77 112.74 14.77L107.55 14.77ZM228.8 14.77L230.08 8.8L235.02 8.8Q236.65 8.8 237.61 9.5Q238.06 9.82 238.3 10.26Q238.57 10.76 238.57 11.41Q238.57 12.16 238.28 12.77Q237.99 13.37 237.43 13.83Q236.29 14.77 233.99 14.77L228.8 14.77ZM364.98 15.64L366.42 8.8L371.1 8.8Q372.44 8.8 373.33 9.43Q373.47 9.53 373.61 9.65Q374.09 10.09 374.33 10.64Q374.56 11.16 374.56 11.77Q374.56 12.71 374.17 13.46Q373.85 14.08 373.25 14.57Q373.15 14.66 373.04 14.74Q371.8 15.64 369.9 15.64L364.98 15.64ZM11.08 25.83L14.68 9L19.12 9Q22.48 9 24.19 10.67Q24.28 10.76 24.36 10.85Q24.63 11.14 24.86 11.45Q26.08 13.17 26.08 15.76Q26.08 19.44 24.36 21.93Q23.93 22.55 23.39 23.1Q22.91 23.59 22.37 23.99Q19.87 25.83 16 25.83L11.08 25.83ZM433.09 19.67L426.45 19.67L431.82 9.87L433.09 19.67Z" fill="#FFFFFF" fill-opacity="1.000000" fill-rule="evenodd"/>
</svg>
