<svg width="241" height="94" viewBox="0 0 241 94" fill="none" xmlns="http://www.w3.org/2000/svg">
<path opacity="0.3" d="M141 9L126 17.6603V0.339745L141 9ZM0.5 94V88.5833H3.5V94H0.5ZM0.5 77.75V66.9167H3.5V77.75H0.5ZM0.5 56.0833V45.25H3.5V56.0833H0.5ZM0.5 34.4167V29H3.5V34.4167H0.5ZM0.5 29C0.5 27.566 0.640593 26.1634 0.909199 24.8057L3.85216 25.3879C3.62129 26.5549 3.5 27.7626 3.5 29H0.5ZM4.12224 17.0532C5.69148 14.7093 7.70925 12.6915 10.0532 11.1222L11.7222 13.6151C9.70407 14.9662 7.96623 16.7041 6.61514 18.7222L4.12224 17.0532ZM17.8057 7.9092C19.1634 7.64059 20.566 7.5 22 7.5V10.5C20.7626 10.5 19.5549 10.6213 18.3879 10.8522L17.8057 7.9092ZM22 7.5H26.9583V10.5H22V7.5ZM36.875 7.5H46.7917V10.5H36.875V7.5ZM56.7083 7.5H66.625V10.5H56.7083V7.5ZM76.5417 7.5H86.4583V10.5H76.5417V7.5ZM96.375 7.5H106.292V10.5H96.375V7.5ZM116.208 7.5H126.125V10.5H116.208V7.5Z" fill="white"/>
</svg>
