<svg width="52" height="35" viewBox="0 0 52 35" fill="none" xmlns="http://www.w3.org/2000/svg">
<path d="M12.1329 5.2402C12.7435 3.68094 13.8221 2.34721 15.2217 1.42093C16.6085 0.486801 18.2463 -0.00842651 19.9205 0.000108493H52L39.8802 29.7852C39.2684 31.3476 38.1845 32.6821 36.7783 33.6045C35.3913 34.5354 33.7519 35.022 32.0795 34.9992H0L12.1329 5.2402ZM14.7506 24.9231H29.8414C30.2512 24.9308 30.6518 24.8023 30.9801 24.5582C31.3111 24.3311 31.5699 24.0145 31.7262 23.6457L37.3018 10.0762H22.1717C21.7555 10.0559 21.3442 10.1725 21.0012 10.4081C20.6583 10.6437 20.4027 10.9851 20.2738 11.3797L14.7506 24.9231Z" fill="url(#paint0_linear)"/>
<defs>
<linearGradient id="paint0_linear" x1="50.2854" y1="19.6179" x2="1.73069" y2="15.347" gradientUnits="userSpaceOnUse">
<stop stop-color="#F39654"/>
<stop offset="0.4" stop-color="#E83D40"/>
<stop offset="1" stop-color="#BE1622"/>
</linearGradient>
</defs>
</svg>
