<svg width="1666" height="246" viewBox="0 0 1666 246" fill="none" xmlns="http://www.w3.org/2000/svg">
<path d="M2.416 230.584L95.568 11.152C98.4107 4.37332 103.44 0.983987 110.656 0.983987H271.376C284.277 0.983987 294.227 3.06132 301.224 7.21599C308.44 11.152 313.36 16.5093 315.984 23.288C318.608 29.848 319.155 37.5013 317.624 46.248C316.312 54.9947 313.688 64.0693 309.752 73.472L265.472 177.448C259.787 190.787 254.101 201.939 248.416 210.904C242.731 219.651 236.28 226.648 229.064 231.896C222.067 237.144 213.867 240.861 204.464 243.048C195.28 245.016 184.237 246 171.336 246H12.256C6.57067 246 3.072 244.579 1.76 241.736C0.666667 238.675 0.885334 234.957 2.416 230.584ZM172.32 167.28C174.944 167.28 177.021 165.312 178.552 161.376L211.024 85.28C212.773 81.1253 211.352 79.048 206.76 79.048H158.544L121.152 167.28H172.32ZM260.268 230.584L353.42 11.152C356.262 4.37332 361.292 0.983987 368.508 0.983987H549.564C554.374 0.983987 557.545 2.51465 559.076 5.57599C560.825 8.41866 560.825 12.0267 559.076 16.4L537.1 68.552C534.257 75.5493 529.228 79.048 522.012 79.048H416.724L412.46 89.216H502.988C507.798 89.216 510.969 90.7467 512.5 93.808C514.249 96.6507 514.249 100.259 512.5 104.632L494.788 146.616C493.038 150.333 491.07 153.067 488.884 154.816C486.697 156.347 483.636 157.112 479.7 157.112H383.596L379.332 167.28H481.012C486.916 167.28 490.414 168.811 491.508 171.872C492.82 174.933 492.601 178.651 490.852 183.024L468.548 235.504C465.705 242.501 460.676 246 453.46 246H270.108C264.422 246 260.924 244.579 259.612 241.736C258.518 238.675 258.737 234.957 260.268 230.584ZM551.063 230.584L615.351 79.048H561.559C555.655 79.048 552.047 77.5173 550.735 74.456C549.641 71.3947 549.969 67.6773 551.719 63.304L574.023 11.152C576.865 4.37332 581.895 0.983987 589.111 0.983987H795.095C800.124 0.983987 803.404 2.62399 804.935 5.90398C806.465 8.96532 806.356 12.464 804.607 16.4L782.631 68.552C779.788 75.5493 774.649 79.048 767.215 79.048H711.127L644.871 235.504C642.028 242.501 636.78 246 629.127 246H560.903C555.217 246 551.719 244.579 550.407 241.736C549.095 238.675 549.313 234.957 551.063 230.584ZM724.095 230.584L816.919 11.152C818.669 7.43466 820.637 4.81066 822.823 3.28C825.229 1.74932 828.399 0.983987 832.335 0.983987H989.447C1010.66 0.983987 1024.98 5.68532 1032.42 15.088C1040.07 24.272 1039.85 38.5947 1031.76 58.056L1006.18 119.392C996.554 142.571 979.717 157.659 955.663 164.656L963.863 234.192C964.738 242.064 960.474 246 951.071 246H884.159C879.567 246 876.287 245.016 874.319 243.048C872.351 241.08 871.149 237.909 870.711 233.536L863.167 167.28H842.831L813.967 235.504C811.125 242.501 805.986 246 798.551 246H733.935C728.25 246 724.751 244.579 723.439 241.736C722.346 238.675 722.565 234.957 724.095 230.584ZM872.023 98.072H920.239C923.301 98.072 925.597 96.2133 927.127 92.496L930.079 85.608C932.047 81.2347 930.626 79.048 925.815 79.048H880.223L872.023 98.072ZM999.134 173.512L1043.74 68.552C1049.43 54.9947 1055 43.8427 1060.47 35.096C1066.16 26.3493 1072.39 19.4613 1079.17 14.432C1086.16 9.40266 1094.14 5.90399 1103.11 3.93599C1112.29 1.96799 1123.23 0.983987 1135.91 0.983987H1243.17C1256.72 0.983987 1267 2.95199 1274 6.88799C1281.21 10.824 1286.02 16.1813 1288.43 22.96C1290.84 29.7387 1291.16 37.5013 1289.41 46.248C1287.88 54.9947 1285.04 64.1787 1280.89 73.8L1236.28 178.432C1230.59 191.771 1225.02 202.813 1219.55 211.56C1214.08 220.307 1207.85 227.195 1200.85 232.224C1194.08 237.253 1186.09 240.861 1176.91 243.048C1167.94 245.016 1157.23 246 1144.77 246H1037.18C1023.84 246 1013.57 244.032 1006.35 240.096C999.352 236.16 994.542 230.912 991.918 224.352C989.512 217.573 989.075 209.811 990.606 201.064C992.136 192.317 994.979 183.133 999.134 173.512ZM1100.81 167.28H1145.42C1147.61 167.28 1149.58 165.312 1151.33 161.376L1183.8 85.28C1184.89 82.656 1185.11 81.016 1184.45 80.36C1184.02 79.4853 1182.38 79.048 1179.53 79.048H1134.93C1132.52 79.048 1130.55 81.016 1129.02 84.952L1096.55 161.048C1095.46 163.672 1095.13 165.421 1095.57 166.296C1096.22 166.952 1097.97 167.28 1100.81 167.28ZM1232.12 230.584L1325.27 11.152C1328.11 4.37332 1333.14 0.983987 1340.36 0.983987H1404.97C1409.79 0.983987 1412.96 2.51465 1414.49 5.57599C1416.24 8.41866 1416.24 12.0267 1414.49 16.4L1321.66 235.504C1320.13 239.221 1318.16 241.955 1315.76 243.704C1313.57 245.235 1310.51 246 1306.57 246H1241.96C1236.27 246 1232.77 244.469 1231.46 241.408C1230.15 238.347 1230.37 234.739 1232.12 230.584ZM1408.86 230.584L1473.15 79.048H1419.36C1413.45 79.048 1409.84 77.5173 1408.53 74.456C1407.44 71.3947 1407.77 67.6773 1409.52 63.304L1431.82 11.152C1434.66 4.37332 1439.69 0.983987 1446.91 0.983987H1652.89C1657.92 0.983987 1661.2 2.62399 1662.73 5.90398C1664.26 8.96532 1664.15 12.464 1662.4 16.4L1640.43 68.552C1637.58 75.5493 1632.45 79.048 1625.01 79.048H1568.92L1502.67 235.504C1499.82 242.501 1494.58 246 1486.92 246H1418.7C1413.01 246 1409.52 244.579 1408.2 241.736C1406.89 238.675 1407.11 234.957 1408.86 230.584Z" fill="white"/>
</svg>
