<svg width="17" height="12" viewBox="0 0 17 12" fill="none" xmlns="http://www.w3.org/2000/svg">
<path d="M8.37081 4.624C8.27481 5.16 8.06681 5.628 7.74681 6.028C7.43481 6.428 7.03481 6.736 6.54681 6.952L7.69881 10H5.53881L4.55481 7.288H3.64281L3.16281 10H1.01481L2.50281 1.6H5.79081C6.62281 1.6 7.29881 1.896 7.81881 2.488C8.33881 3.08 8.52281 3.792 8.37081 4.624ZM4.29081 3.58L3.95481 5.464H5.19081C5.45481 5.472 5.67881 5.388 5.86281 5.212C6.05481 5.036 6.17481 4.808 6.22281 4.528C6.27081 4.248 6.22281 4.02 6.07881 3.844C5.94281 3.668 5.73081 3.58 5.44281 3.58H4.29081ZM11.7456 10.18C10.7216 10.18 9.92963 9.904 9.36963 9.352C8.81763 8.8 8.61763 8.096 8.76963 7.24L9.76562 1.6H11.9136L10.9536 7.036C10.8256 7.74 11.1576 8.092 11.9496 8.092C12.7336 8.092 13.1896 7.74 13.3176 7.036L14.2656 1.6H16.4136L15.4176 7.24C15.2496 8.184 14.8336 8.912 14.1696 9.424C13.5056 9.928 12.6976 10.18 11.7456 10.18Z" fill="url(#paint0_linear_3315_7877)"/>
<defs>
<linearGradient id="paint0_linear_3315_7877" x1="18.5" y1="1" x2="1.5" y2="10" gradientUnits="userSpaceOnUse">
<stop stop-color="#F38F53"/>
<stop offset="1" stop-color="#C01824"/>
</linearGradient>
</defs>
</svg>
