<svg width="724" height="766" viewBox="0 0 724 766" fill="none" xmlns="http://www.w3.org/2000/svg">
<mask id="mask0" style="mask-type:alpha" maskUnits="userSpaceOnUse" x="-62" y="0" width="786" height="832">
<rect x="-62" width="786" height="832" fill="url(#paint0_linear)"/>
</mask>
<g mask="url(#mask0)">
<path fill-rule="evenodd" clip-rule="evenodd" d="M312.926 790.5H185.425C185.926 789.667 187.126 785.4 187.926 775C188.326 757 142.759 717.833 119.926 700.5C115.092 696.833 103.726 688 96.9258 682C97.7258 675.6 89.5925 639 85.4258 621.5L55.9258 630.5C54.7591 627 51.6258 619.9 48.4258 619.5C45.2258 619.1 29.4258 620.667 21.9258 621.5L19.9258 603.5C18.2591 601 14.2258 595.4 11.4258 593C8.62578 590.6 20.2591 584.667 26.4258 582V569H58.9258C62.3008 569 70.457 572.938 74.5352 574.906C75.8945 575.562 76.8008 576 76.9258 576C77.4258 576 78.4258 572 78.4258 566.5C78.4258 563.865 81.4101 557.097 84.5191 550.048C87.8988 542.383 91.4258 534.386 91.4258 531C86.9258 529 81.9258 497.5 81.9258 493.5C81.9258 490.3 90.2591 483.167 94.4258 480V468C94.4258 464.4 101.759 454.5 105.426 450C104.259 448.167 98.6258 445.4 85.4258 449C68.9258 453.5 40.9258 481 38.9258 484.5C37.2465 487.439 41.912 494.255 47.0031 501.693L47.007 501.698C47.9782 503.117 48.9648 504.559 49.9258 506C54.7258 513.2 48.5925 529 44.9258 536C42.5925 535 37.9258 533.4 37.9258 535C37.9258 537 31.4258 545.5 25.4258 546C22.1909 546.27 20.4094 544.214 18.5141 542.026C16.894 540.157 15.1909 538.191 12.4258 537.5C9.3539 536.732 7.85475 534.391 6.25082 531.887C4.72197 529.5 3.0979 526.964 -0.0742188 525.5C-6.57422 522.5 -10.0742 512.5 -10.0742 506C-10.0742 502.357 -11.3304 497.773 -12.4348 493.742C-13.3012 490.58 -14.0742 487.758 -14.0742 486C-14.0742 482.8 -6.74088 471.333 -3.07422 466C0.259109 451 7.62578 418.6 10.4258 409C13.9258 397 25.4258 384.5 27.4258 383.5C29.4258 382.5 29.4258 370 29.4258 360.5C29.4258 351 37.9258 342.5 42.4258 340C46.9258 337.5 64.4258 330.5 66.9258 330C69.4258 329.5 86.4258 307 90.4258 301.5C94.4258 296 114.426 272.5 124.926 269.5C133.326 267.1 143.759 258.833 147.926 255C148.926 252.333 151.226 246.4 152.426 244C153.435 241.982 163.495 237.022 171.495 233.078L171.495 233.078C175.386 231.16 178.79 229.482 180.426 228.5C183.61 226.59 185.375 227.315 187.269 228.094C188.35 228.538 189.473 229 190.926 229C194.126 229 206.926 218.333 212.926 213C216.592 209.333 223.926 201.6 223.926 200C223.926 198.4 229.592 194 232.426 192C211.259 178.5 168.126 151.5 164.926 151.5C163.901 151.5 161.04 152.222 157.283 153.169C146.37 155.921 127.901 160.579 124.925 155C121.725 149 132.259 138.5 137.926 134L121.426 124.5C118.259 126 110.926 129 106.926 129C102.926 129 77.259 104.667 64.9256 92.5C47.759 99.3333 9.42578 112.3 -6.57422 109.5C-22.5742 106.7 -75.5742 49 -100.074 20.5L-107.074 -8.5V-33C-109.908 -32.3333 -118.374 -35.1 -129.574 -51.5C-140.774 -67.9 -83.2409 -95.3333 -53.0742 -107C-44.9076 -104 -27.0742 -97.3 -21.0742 -94.5C-14.8418 -91.5915 -13.7885 -84.1945 -12.7497 -76.8996V-76.8995C-12.5384 -75.4159 -12.3277 -73.9365 -12.0742 -72.5C4.92577 -65.5 32.4258 -35 35.4258 -24.5C29.4258 -33.3 -6.07423 -47.1667 -23.0742 -53C-19.9076 -48.8333 -13.5742 -39.6 -13.5742 -36C-14.3742 -38.4 -22.5742 -43.6667 -26.5742 -46L-18.0742 -28L-43.5745 -43L-60.0742 -29.5L-63.5742 -34.5L-69.0742 -29C-63.9076 -20.8333 -53.0742 -4.3 -51.0742 -3.5C-49.5742 -5.5 -45.0745 -4 -45.0745 -1.5C-45.0745 -0.879395 -45.1361 -0.474472 -45.1905 -0.116966C-45.3553 0.965698 -45.4538 1.61356 -43.5745 6.5C-41.5745 9.7 -43.0745 13.8333 -44.0745 15.5L26.9256 80L48.4256 74C24.9545 49.7307 -24.1221 -1.91866 -40.1605 -22.0403C-28.5934 -9.47588 31.3377 41.7887 62.4256 68C70.2589 66.5 86.6255 63.2 89.4255 62C92.9254 60.5 84.9256 53 68.4256 43.5C51.9256 34 0.425552 -27 -1.07445 -36C3.5226 -24.5074 28.6655 -3.91589 48.7177 12.5065C54.8374 17.5183 60.4829 22.1419 64.9256 26C72.1905 32.309 80.4789 37.6677 87.9458 42.4954C100.007 50.2935 109.926 56.706 109.926 63.5C109.926 74.5 89.9255 79.5 89.4255 79.5C88.9255 79.5 96.4255 85.5 98.4255 86.5C99.5335 87.054 104.939 88.0685 110.985 89.2032C115.852 90.1167 121.135 91.108 124.925 92C131.725 93.6 133.092 100 132.925 103C140.759 107.5 156.925 116.4 158.925 116C160.925 115.6 197.759 103.833 215.926 98C214.926 93.5 213.126 82.9 213.926 76.5C214.926 68.5 231.926 50.5 234.426 50.5C236.926 50.5 238.426 48.5 235.426 38C232.426 27.5 237.926 14.5 243.926 11C249.926 7.5 299.926 -4.99983 313.926 -6.99983C326.281 -8.76492 340.973 1.54267 348.379 6.73801C349.364 7.42945 350.221 8.03034 350.926 8.50017C356.926 12.5002 378.926 36.0002 380.426 42.5002C381.322 46.386 378.109 50.8079 375.593 54.2703C373.9 56.5996 372.523 58.4947 372.926 59.5002C373.725 61.5002 387.925 66.6668 394.925 69.0002C392.092 71.0002 385.026 75.9002 379.426 79.5002C373.826 83.1002 373.092 87.6668 373.426 89.5002C373.259 90.3335 372.926 92.2002 372.926 93.0002C372.926 94.0002 377.926 106.5 379.926 106.5C381.926 106.5 448.425 131 440.425 140.5C434.993 146.952 413.88 145.794 399.637 145.013C392.906 144.643 387.709 144.358 386.425 145C390.425 147 398.425 167.5 398.925 176.5C399.425 185.5 389.925 190 384.425 192C378.925 194 368.926 192 365.926 191C363.555 190.21 360.871 193.479 359.11 195.626L359.109 195.626C358.642 196.196 358.24 196.686 357.926 197C357.071 197.854 355.407 198.222 353.855 198.565C352.681 198.824 351.571 199.07 350.926 199.5C349.725 200.3 338.426 214.167 332.926 221C371.592 243.834 449.126 289.4 449.926 289C450.926 288.5 455.426 285 458.926 277C461.961 270.062 469.885 272.902 473.24 274.104C473.754 274.288 474.16 274.434 474.425 274.5C475.182 274.689 476.152 274.807 477.202 274.934C478.929 275.143 480.871 275.378 482.425 276C483.2 276.31 485.462 277.771 488.379 279.656L488.38 279.656C494.879 283.855 504.63 290.155 508.425 290.5C513.925 291 521.925 300.5 521.925 306.5C529.125 308.5 530.925 318 530.925 322.5C531.925 322.833 534.826 324.3 538.425 327.5C542.025 330.7 539.925 339.167 538.425 343C573.592 362 646.826 403.3 658.425 416.5C667.625 433.7 650.259 441.333 640.425 443C601.425 420.167 521.625 373.4 514.425 369C513.925 373 489.925 384.5 483.925 384.5C484.718 390.046 480.488 392.14 477.205 393.765C476.344 394.191 475.549 394.585 474.925 395C475.925 403.5 451.425 427.5 439.925 436C436.425 445 427.925 448 420.425 450C414.425 451.6 388.592 453.667 376.426 454.5L389.925 481L396.425 523.5C402.092 524 416.625 525.6 429.425 528C442.225 530.4 457.426 542.333 463.426 548C466.759 548.833 476.826 551.8 490.425 557C507.425 563.5 539.925 595 541.425 597.5C542.925 600 554.925 601.5 559.425 601.5C563.925 601.5 577.925 618 581.925 623C585.125 627 580.592 638.333 577.925 643.5L574.925 673C571.092 670.667 562.625 665.2 559.425 662C556.225 658.8 556.759 638.333 557.425 628.5C555.259 628.667 550.525 629.6 548.925 632C550.525 634.4 549.592 652 548.925 660.5C555.425 668.5 566.625 687.1 559.425 697.5C544.225 716.3 517.092 723.667 505.425 725L477.425 751H469.425C467.092 752.167 461.526 754.4 457.926 754C454.326 753.6 456.426 747.5 457.926 744.5C451.759 743.5 437.925 742.1 431.925 744.5C434.326 747.3 429.259 760.333 426.425 766.5L430.925 781H423.925L419.925 786C414.759 783.333 404.326 777.6 403.925 776C403.759 775.333 402.093 771.39 399.871 766.132L399.87 766.13L399.869 766.127C395.424 755.608 388.759 739.833 387.425 734.5C380.625 732.9 364.926 719.5 357.926 713C357.592 718.167 354.926 727.8 346.926 725C337.725 719.8 330.759 697.167 328.426 686.5L293.926 702C296.092 712.667 301.225 734.9 304.426 738.5C307.626 742.1 311.426 774.667 312.926 790.5ZM-42.0745 -24.5C-41.9032 -24.0546 -41.244 -23.2172 -40.1605 -22.0403C-40.8636 -22.9224 -41.5033 -23.744 -42.0745 -24.5ZM-20.4999 87.4997C-11.8332 87.4997 5.40013 86.7997 5.00014 83.9997C4.60013 81.1997 -53.4999 12.833 -82.4999 -21.0003L-60.4999 -2.50031L-76.9999 -30.5003C-85.4999 -34.3336 -102.4 -39.9003 -102 -31.5003C-101.6 -23.1003 -101.833 -8.00011 -102 -1.5L-88 24L-20.4999 87.4997ZM329.5 253.5C360.5 272.166 422.5 309.9 422.5 311.5C422.5 311.742 422.493 312.115 422.483 312.591C422.416 316.051 422.242 324.923 424 328C425.6 330.8 433 347.833 436.5 356C434.333 358 428.8 361.2 424 358C420.632 355.754 419.47 353.824 418.391 352.032C417.547 350.632 416.755 349.316 415 348C413.081 346.56 410.241 345.006 407.695 343.612C404.935 342.101 402.52 340.78 402 340C401 338.5 396 335 392 335C388 335 381.5 335 380.5 334C380.28 333.78 379.769 333.172 379.085 332.358L379.084 332.357L379.084 332.357L379.084 332.356C376.659 329.472 372.06 324 370.5 324C369.654 324 369.792 322.388 369.969 320.339C370.209 317.546 370.519 313.942 368.5 312.5C367.44 311.743 365.877 311.123 364.169 310.447C360.238 308.89 355.546 307.032 354.5 302.5C353 296 346 274.5 340 267C335.2 261 331 255.5 329.5 253.5Z"/>
</g>
<defs>
<linearGradient id="paint0_linear" x1="724" y1="339.059" x2="-62" y2="339.06" gradientUnits="userSpaceOnUse">
<stop offset="0.091433" stop-color="#C4C4C4" stop-opacity="0"/>
<stop offset="0.354989" stop-color="#C4C4C4" stop-opacity="0.46"/>
<stop offset="0.66909" stop-color="#C4C4C4"/>
<stop offset="1" stop-color="#C4C4C4" stop-opacity="0"/>
</linearGradient>
</defs>
</svg>
